SplineFontDB: 3.2
FontName: Untitled1
FullName: Untitled1
FamilyName: Untitled1
Weight: Medium
Copyright: Created with FontForge 2.0 (http://fontforge.sf.net)
UComments: "2025-12-3: Created."
Version: 001.000
ItalicAngle: 0
UnderlinePosition: -100
UnderlineWidth: 50
Ascent: 800
Descent: 200
InvalidEm: 0
LayerCount: 2
Layer: 0 0 "Arri+AOgA-re" 1
Layer: 1 0 "Avant" 0
XUID: [1021 539 2590 9691]
OS2Version: 0
OS2_WeightWidthSlopeOnly: 0
OS2_UseTypoMetrics: 1
CreationTime: 1764769947
ModificationTime: 1764770771
OS2TypoAscent: 0
OS2TypoAOffset: 1
OS2TypoDescent: 0
OS2TypoDOffset: 1
OS2TypoLinegap: 0
OS2WinAscent: 0
OS2WinAOffset: 1
OS2WinDescent: 0
OS2WinDOffset: 1
HheadAscent: 0
HheadAOffset: 1
HheadDescent: 0
HheadDOffset: 1
OS2Vendor: 'PfEd'
DEI: 91125
Encoding: ISO8859-1
UnicodeInterp: none
NameList: Adobe Glyph List
DisplaySize: -24
AntiAlias: 1
FitToEm: 1
WinInfo: 0 102 26
BeginChars: 256 93

StartChar: uni0000
Encoding: 0 0 0
Width: 1825
VWidth: 2048
Flags: HW
LayerCount: 2
Fore
SplineSet
173 740 m 1
 543 1110 l 1
 543 814 l 1
 1653 814 l 1
 1653 666 l 1
 543 666 l 1
 543 370 l 1
 173 740 l 1
EndSplineSet
EndChar

StartChar: uni0001
Encoding: 1 1 1
Width: 1825
VWidth: 2048
Flags: HW
LayerCount: 2
Fore
SplineSet
1653 740 m 5
 1283 1110 l 5
 1283 814 l 5
 173 814 l 5
 173 666 l 5
 1283 666 l 5
 1283 370 l 5
 1653 740 l 5
EndSplineSet
EndChar

StartChar: uni0002
Encoding: 2 2 2
Width: 1135
VWidth: 2048
Flags: HW
LayerCount: 2
Fore
SplineSet
567 1480 m 5
 937 1110 l 5
 641 1110 l 5
 641 0 l 5
 493 0 l 5
 493 1110 l 5
 197 1110 l 5
 567 1480 l 5
EndSplineSet
EndChar

StartChar: uni0003
Encoding: 3 3 3
Width: 1135
VWidth: 2048
Flags: HW
LayerCount: 2
Fore
SplineSet
567 0 m 5
 197 370 l 5
 493 370 l 5
 493 1480 l 5
 641 1480 l 5
 641 370 l 5
 937 370 l 5
 567 0 l 5
EndSplineSet
EndChar

StartChar: uni0004
Encoding: 4 4 4
Width: 1444
VWidth: 2048
Flags: HW
LayerCount: 2
Fore
SplineSet
173 1332 m 1
 696 1332 l 1
 487 1123 l 1
 1272 338 l 1
 1167 233 l 1
 382 1018 l 1
 173 809 l 1
 173 1332 l 1
EndSplineSet
EndChar

StartChar: uni0005
Encoding: 5 5 5
Width: 1444
VWidth: 2048
Flags: HW
LayerCount: 2
Fore
SplineSet
1272 1332 m 5
 749 1332 l 5
 958 1123 l 5
 173 338 l 5
 278 233 l 5
 1063 1018 l 5
 1272 809 l 5
 1272 1332 l 5
EndSplineSet
EndChar

StartChar: uni0006
Encoding: 6 6 6
Width: 1444
VWidth: 2048
Flags: HW
LayerCount: 2
Fore
SplineSet
173 148 m 1
 173 671 l 1
 382 462 l 1
 1167 1247 l 1
 1272 1142 l 1
 487 357 l 1
 696 148 l 1
 173 148 l 1
EndSplineSet
EndChar

StartChar: uni0007
Encoding: 7 7 7
Width: 1444
VWidth: 2048
Flags: HW
LayerCount: 2
Fore
SplineSet
1272 148 m 5
 1272 671 l 5
 1063 462 l 5
 278 1247 l 5
 173 1142 l 5
 958 357 l 5
 749 148 l 5
 1272 148 l 5
EndSplineSet
EndChar

StartChar: uni000D
Encoding: 13 13 8
Width: 1381
VWidth: 2048
Flags: HW
LayerCount: 2
Fore
SplineSet
222 415 m 1
 189.333 494.334 173 573.334 173 652 c 0
 173 732.667 191 811.334 227 888 c 1
 344 888 l 2
 370.667 888 390.333 892.5 403 901.5 c 128
 415.667 910.501 437 935.334 467 976 c 2
 495 1013 l 1
 525.667 1055 547.334 1083.33 560 1098 c 1
 746 1295 l 1
 796 1517 l 1
 824 1510 l 1
 929.333 1485.33 982 1423.33 982 1324 c 0
 981.998 1288 964.331 1237 929 1171 c 2
 914 1143 l 2
 884.665 1087 865.998 1029 858 969 c 1
 886 969 l 2
 982.667 969 1060.67 952.167 1120 918.5 c 128
 1179.34 884.833 1209 841 1209 787 c 0
 1209 739.667 1190.66 696.667 1154 658 c 1
 1168.67 634.667 1176 612.667 1176 592 c 0
 1176 540.666 1149 507.666 1095 493 c 1
 1097 481 1098 471.333 1098 464 c 0
 1098 402 1062 368 990 362 c 1
 991.333 353.333 992 346.999 992 343 c 0
 991.998 308.333 979.831 282.333 955.5 265 c 128
 931.166 247.666 894.333 239 845 239 c 2
 801 239 l 1
 766 257 l 1
 721.999 245 683.332 239 650 239 c 0
 637.999 239 619.332 240 594 242 c 1
 514 278.667 439.667 336.333 371 415 c 1
 222 415 l 1
766 310 m 1
 806 291 l 1
 822.668 287.667 835.335 286 844 286 c 0
 876.667 286 901.167 292.333 917.5 305 c 128
 933.833 317.667 942 336.333 942 361 c 0
 942 375 941 391.333 939 410 c 1
 1013 410 1050 430 1050 470 c 0
 1050 478 1047 497 1041 527 c 1
 1095.67 538.333 1123 559 1123 589 c 0
 1123 607.667 1110.66 632.667 1086 664 c 1
 1134 706 1158 749 1158 793 c 0
 1158 835.668 1131.5 867.501 1078.5 888.5 c 128
 1025.5 909.5 946 920 840 920 c 2
 804 920 l 1
 805 948 l 1
 805 1026.67 831 1109.33 883 1196 c 1
 896 1218 l 2
 918.668 1256 930.002 1291.33 930 1324 c 0
 930 1386.67 896.667 1429.33 830 1452 c 1
 790 1267 l 1
 589 1053 l 1
 554.999 1010.33 529.333 977.333 512 954 c 0
 468.667 894 436.5 859 415.5 849 c 128
 394.5 839 342 834 258 834 c 1
 235.333 770.667 224 706.333 224 641 c 0
 224 585.667 234.334 527.667 255 467 c 1
 393 467 l 1
 449.667 391.667 521 330 607 282 c 1
 635 283 l 1
 687 283 730.667 292 766 310 c 1
EndSplineSet
EndChar

StartChar: uni000E
Encoding: 14 14 9
Width: 1381
VWidth: 2048
Flags: HW
LayerCount: 2
Fore
SplineSet
1160 1065 m 5
 1209 946 1209 946 1209 828 c 4
 1209 707 1209 707 1155 592 c 5
 1038 592 l 6
 998 592 998 592 979 578.5 c 132
 960 565 960 565 915 504 c 6
 887 467 l 5
 841 404 841 404 822 382 c 5
 636 185 l 5
 586 -37 l 5
 558 -30 l 5
 400 7 400 7 400 156 c 4
 400 210 400 210 453 309 c 6
 468 337 l 6
 512 421 512 421 524 511 c 5
 496 511 l 6
 351 511 351 511 262 561.5 c 132
 173 612 173 612 173 693 c 4
 173 764 173 764 228 822 c 5
 206 857 206 857 206 888 c 4
 206 965 206 965 287 987 c 5
 284 1005 284 1005 284 1016 c 4
 284 1109 284 1109 392 1118 c 5
 390 1131 390 1131 390 1137 c 4
 390 1189 390 1189 426.5 1215 c 132
 463 1241 463 1241 537 1241 c 6
 581 1241 l 5
 616 1223 l 5
 682 1241 682 1241 732 1241 c 4
 750 1241 750 1241 788 1238 c 5
 908 1183 908 1183 1011 1065 c 5
 1160 1065 l 5
616 1170 m 5
 576 1189 l 5
 551 1194 551 1194 538 1194 c 4
 489 1194 489 1194 464.5 1175 c 132
 440 1156 440 1156 440 1119 c 4
 440 1098 440 1098 443 1070 c 5
 332 1070 332 1070 332 1010 c 4
 332 998 332 998 341 953 c 5
 259 936 259 936 259 891 c 4
 259 863 259 863 296 816 c 5
 224 753 224 753 224 687 c 4
 224 623 224 623 303.5 591.5 c 132
 383 560 383 560 542 560 c 6
 578 560 l 5
 577 532 l 5
 577 414 577 414 499 284 c 5
 486 262 l 6
 452 205 452 205 452 156 c 4
 452 62 452 62 552 28 c 5
 592 213 l 5
 793 427 l 5
 844 491 844 491 870 526 c 4
 935 616 935 616 966.5 631 c 132
 998 646 998 646 1124 646 c 5
 1158 741 1158 741 1158 839 c 4
 1158 922 1158 922 1127 1013 c 5
 989 1013 l 5
 904 1126 904 1126 775 1198 c 5
 747 1197 l 5
 669 1197 669 1197 616 1170 c 5
EndSplineSet
EndChar

StartChar: uni000F
Encoding: 15 15 10
Width: 1928
VWidth: 2048
Flags: HW
LayerCount: 2
Fore
SplineSet
1711 605 m 1
 1562 605 l 1
 1517.33 537.667 1446.33 478.333 1349 427 c 1
 1313 421.667 1267.67 419 1213 419 c 0
 1108.33 419.001 1037.33 426.167 1000 440.5 c 128
 962.664 454.834 943.997 482 944 522 c 0
 944 528 944.667 535.667 946 545 c 1
 871.333 553.667 834 594.667 834 668 c 2
 834 705 l 1
 778.666 725.667 750.999 771.667 751 843 c 2
 751 901 l 1
 428 907 l 1
 372 906 l 1
 239.333 906 173 940.667 173 1010 c 0
 173 1086.67 245.333 1125 390 1125 c 2
 463 1125 l 1
 810 1133 l 1
 1028 1252 l 1
 1160 1214 1313.33 1152.33 1488 1067 c 1
 1703 1067 l 1
 1738.34 999.666 1756.01 919.332 1756 826 c 0
 1756 743.333 1741 669.667 1711 605 c 1
EndSplineSet
EndChar

StartChar: uni0010
Encoding: 16 16 11
Width: 1928
VWidth: 2048
Flags: HW
LayerCount: 2
Fore
SplineSet
218 605 m 1
 188 669.667 173 743.334 173 826 c 0
 173 919.333 190.667 999.667 226 1067 c 1
 440 1067 l 1
 615.333 1152.34 769 1214 901 1252 c 1
 1118 1133 l 1
 1466 1125 l 1
 1539 1125 l 2
 1683.67 1125 1756 1086.66 1756 1010 c 0
 1756 940.666 1690.33 905.999 1559 906 c 1
 1500 907 l 1
 1178 901 l 1
 1178 843 l 2
 1178 771.667 1150.33 725.667 1095 705 c 1
 1095 668 l 2
 1095 594.667 1057.66 553.667 983 545 c 1
 984.333 535.664 985 527.997 985 522 c 0
 985 482 966.167 454.833 928.5 440.5 c 128
 890.833 426.167 820 419 716 419 c 0
 661.333 419.002 616 421.668 580 427 c 1
 482.667 478.333 411.333 537.667 366 605 c 1
 218 605 l 1
EndSplineSet
EndChar

StartChar: uni0011
Encoding: 17 17 12
Width: 1321
VWidth: 2048
Flags: HW
LayerCount: 2
Fore
SplineSet
623 605 m 1
 598 573 l 1
 473.333 409.667 376.333 328 307 328 c 0
 255 328 202 370.667 148 456 c 1
 166.667 452 181 450 191 450 c 0
 278.333 450 377.667 521.667 489 665 c 1
 528 714 l 1
 500 748 l 1
 365.333 904.667 298 1014.67 298 1078 c 0
 298 1123.33 334.667 1181 408 1251 c 1
 438.667 1113.67 502.667 984 600 862 c 1
 622 834 l 1
 664 885 l 1
 801.333 1055 910.667 1140 992 1140 c 0
 1032 1140 1065 1120.33 1091 1081 c 0
 1095.67 1074.32 1102.33 1064.99 1111 1053 c 1
 1007.67 1006.33 892 912 764 770 c 1
 723 724 l 1
 753 691 l 2
 874.333 557.666 986.333 491 1089 491 c 0
 1119 491 1147 494.333 1173 501 c 1
 1139.67 431.667 1111.83 386.333 1089.5 365 c 128
 1067.17 343.667 1036.67 333 998 333 c 0
 914 333 804.667 406.667 670 554 c 1
 623 605 l 1
EndSplineSet
EndChar

StartChar: uni0012
Encoding: 18 18 13
Width: 1568
VWidth: 2048
Flags: HW
LayerCount: 2
Fore
SplineSet
1464 1568 m 1
 1494 1516 l 1
 1298.67 1378 1117.67 1203.33 951 992 c 128
 784.333 780.667 664 573.667 590 371 c 1
 546 342 l 2
 508 317.333 475.333 292.667 448 268 c 1
 443.333 292 430.333 330.667 409 384 c 2
 386 441 l 2
 336 564.333 293.833 650.5 259.5 699.5 c 128
 225.167 748.5 188 775 148 779 c 1
 202 828.333 249 853 289 853 c 0
 344.333 853 405 778.667 471 630 c 1
 507 550 l 1
 625 761.333 767.5 956 934.5 1134 c 128
 1101.5 1312 1278 1456.67 1464 1568 c 1
EndSplineSet
EndChar

StartChar: uni0013
Encoding: 19 19 14
Width: 1727
VWidth: 2048
Flags: HW
LayerCount: 2
Fore
SplineSet
1060 0 m 1
 984 89 l 1
 864.667 5 735.667 -37 597 -37 c 0
 437.667 -37 305.5 5.83333 200.5 91.5 c 128
 95.5 177.167 43 284.667 43 414 c 0
 43 612 178 763.333 448 868 c 1
 359.333 984.667 315 1090 315 1184 c 0
 315 1281.33 355.833 1361.17 437.5 1423.5 c 128
 519.167 1485.84 623.333 1517 750 1517 c 0
 882 1517 990.5 1488 1075.5 1430 c 128
 1160.5 1372 1203 1297.67 1203 1207 c 0
 1203 1050.33 1084.33 937.332 847 868 c 1
 959.667 691.333 1065 539.333 1163 412 c 1
 1235.67 500.667 1272 588.333 1272 675 c 0
 1272 715.668 1248 736.001 1200 736 c 0
 1189.33 736 1172.99 737 1151 739 c 2
 1135 740 l 1
 1135 864 l 1
 1672 864 l 1
 1672 740 l 1
 1650 739 l 2
 1604.67 736.333 1571.5 726.167 1550.5 708.5 c 128
 1529.5 690.833 1506 653 1480 595 c 0
 1434 494.333 1358.33 399 1253 309 c 1
 1313 229.667 1359.67 179.167 1393 157.5 c 128
 1426.33 135.833 1474.33 125 1537 125 c 1
 1567 123 l 1
 1567 0 l 1
 1060 0 l 1
778 981 m 1
 864.667 1050.33 908 1135.33 908 1236 c 0
 907.997 1288 897.83 1326.83 877.5 1352.5 c 128
 857.167 1378.17 826.667 1391 786 1391 c 0
 744.666 1391 713.499 1380 692.5 1358 c 128
 671.5 1336 661 1302.66 661 1258 c 0
 661 1201.33 700 1109 778 981 c 1
909 190 m 1
 766.333 359.333 635.667 543.333 517 742 c 1
 441.667 686 404 615 404 529 c 0
 404 430.333 439.5 343.167 510.5 267.5 c 128
 581.5 191.833 663 154 755 154 c 0
 801.667 154 853 166 909 190 c 1
EndSplineSet
EndChar

StartChar: uni0014
Encoding: 20 20 15
Width: 1826
VWidth: 2048
Flags: HW
LayerCount: 2
Fore
SplineSet
173 740 m 256
 173 944.667 245.167 1119.17 389.5 1263.5 c 128
 533.833 1407.83 708.333 1480 913 1480 c 256
 1117.67 1480 1292.17 1407.83 1436.5 1263.5 c 128
 1580.83 1119.17 1653 944.667 1653 740 c 256
 1653 535.333 1580.83 360.833 1436.5 216.5 c 128
 1292.17 72.1667 1117.67 0 913 0 c 256
 708.333 0 533.833 72.1667 389.5 216.5 c 128
 245.167 360.833 173 535.333 173 740 c 256
1275 742 m 0
 1275 886 1241.5 1003 1174.5 1093 c 128
 1107.5 1183 1020.33 1228 913 1228 c 256
 805.667 1228 718.667 1182.83 652 1092.5 c 128
 585.333 1002.17 552 884.667 552 740 c 0
 552 596.667 585.5 480 652.5 390 c 128
 719.5 300 806.333 255 913 255 c 0
 1020.33 255 1107.5 300 1174.5 390 c 128
 1241.5 480 1275 597.333 1275 742 c 0
1076 742 m 0
 1076 471.333 1021.33 336 912 336 c 0
 804 336 750 471.333 750 742 c 0
 750 1012 804.667 1147 914 1147 c 0
 1022 1147 1076 1012 1076 742 c 0
EndSplineSet
EndChar

StartChar: uni0015
Encoding: 21 21 16
Width: 1826
VWidth: 2048
Flags: HW
LayerCount: 2
Fore
SplineSet
173 740 m 256
 173 944.667 245.167 1119.17 389.5 1263.5 c 128
 533.833 1407.83 708.333 1480 913 1480 c 256
 1117.67 1480 1292.17 1407.83 1436.5 1263.5 c 128
 1580.83 1119.17 1653 944.667 1653 740 c 256
 1653 535.333 1580.83 360.833 1436.5 216.5 c 128
 1292.17 72.1667 1117.67 0 913 0 c 256
 708.333 0 533.833 72.1667 389.5 216.5 c 128
 245.167 360.833 173 535.333 173 740 c 256
1013 1225 m 1
 664 1203 l 1
 664 1118 l 1
 676 1119 l 1
 754.667 1118.98 799.5 1115.65 810.5 1109 c 128
 821.5 1102.33 827 1075.33 827 1028 c 2
 827 479 l 2
 827 429.667 820.167 400.5 806.5 391.5 c 128
 792.833 382.499 745.333 375.666 664 371 c 1
 664 290 l 1
 1177 290 l 1
 1177 371 l 1
 1166 371 l 1
 1094 374 l 1
 1058.67 374 1036.33 380 1027 392 c 128
 1017.66 404 1012.99 433 1013 479 c 2
 1013 1225 l 1
EndSplineSet
EndChar

StartChar: uni0016
Encoding: 22 22 17
Width: 1826
VWidth: 2048
Flags: HW
LayerCount: 2
Fore
SplineSet
173 740 m 256
 173 944.667 245.167 1119.17 389.5 1263.5 c 128
 533.833 1407.83 708.333 1480 913 1480 c 256
 1117.67 1480 1292.17 1407.83 1436.5 1263.5 c 128
 1580.83 1119.17 1653 944.667 1653 740 c 256
 1653 535.333 1580.83 360.833 1436.5 216.5 c 128
 1292.17 72.1667 1117.67 0 913 0 c 256
 708.333 0 533.833 72.1667 389.5 216.5 c 128
 245.167 360.833 173 535.333 173 740 c 256
611 296 m 1
 1234 296 l 1
 1234 471 l 1
 793 471 l 1
 798.333 517 835 566.334 903 619 c 1
 956 659 l 1
 968.001 669.001 997.334 688.335 1044 717 c 0
 1172.67 795.667 1237 886.667 1237 990 c 0
 1237 1068.67 1207.16 1131 1147.5 1177 c 128
 1087.83 1223 1007.33 1246 906 1246 c 0
 863.333 1246 819.5 1241.83 774.5 1233.5 c 128
 729.5 1225.17 683.333 1212.67 636 1196 c 1
 636 1004 l 1
 720 1004 l 1
 722 1027 l 1
 724.669 1085.67 734.336 1120 751 1130 c 0
 783.667 1150.67 820.001 1161 860 1161 c 0
 980 1161 1040 1101.33 1040 982 c 0
 1040 886 979.333 786.333 858 683 c 1
 820 650 l 2
 714 558.667 644.333 466.333 611 373 c 1
 611 296 l 1
EndSplineSet
EndChar

StartChar: uni0017
Encoding: 23 23 18
Width: 1826
VWidth: 2048
Flags: HW
LayerCount: 2
Fore
SplineSet
173 740 m 256
 173 944.667 245.167 1119.17 389.5 1263.5 c 128
 533.833 1407.83 708.333 1480 913 1480 c 256
 1117.67 1480 1292.17 1407.83 1436.5 1263.5 c 128
 1580.83 1119.17 1653 944.667 1653 740 c 256
 1653 535.333 1580.83 360.833 1436.5 216.5 c 128
 1292.17 72.1667 1117.67 0 913 0 c 256
 708.333 0 533.833 72.1667 389.5 216.5 c 128
 245.167 360.833 173 535.333 173 740 c 256
647 288 m 1
 681.668 277.333 720.001 269.166 762 263.5 c 128
 804 257.832 850 254.999 900 255 c 0
 1010.67 255 1097.67 279.333 1161 328 c 128
 1224.34 376.667 1256 444 1256 530 c 0
 1255.99 588.667 1237.66 641 1201 687 c 128
 1164.33 733.001 1117 763.334 1059 778 c 1
 1169.67 818.667 1225 893.667 1225 1003 c 0
 1225 1078.33 1198.66 1134.67 1146 1172 c 128
 1093.33 1209.34 1014 1228.01 908 1228 c 0
 864.667 1227.98 821.667 1224.65 779 1218 c 128
 736.333 1211.32 694.333 1200.99 653 1187 c 1
 653 996 l 1
 742 996 l 1
 743 1020 l 1
 747.004 1078.67 757.338 1112.33 774 1121 c 0
 807.333 1138.34 842 1147.01 878 1147 c 0
 984.667 1147 1038 1092 1038 982 c 0
 1038 866.666 954 809 786 809 c 2
 732 809 l 1
 732 728 l 1
 796 728 l 2
 974.667 728 1064 659.333 1064 522 c 0
 1064 466 1047 421 1013 387 c 128
 979 353 934.667 336 880 336 c 0
 838.666 336 799.999 346 764 366 c 1
 746.664 374.667 736.331 405.667 733 459 c 1
 731 483 l 1
 647 483 l 1
 647 288 l 1
EndSplineSet
EndChar

StartChar: uni0018
Encoding: 24 24 19
Width: 1826
VWidth: 2048
Flags: HW
LayerCount: 2
Fore
SplineSet
173 740 m 256
 173 944.667 245.167 1119.17 389.5 1263.5 c 128
 533.833 1407.83 708.333 1480 913 1480 c 256
 1117.67 1480 1292.17 1407.83 1436.5 1263.5 c 128
 1580.83 1119.17 1653 944.667 1653 740 c 256
 1653 535.333 1580.83 360.833 1436.5 216.5 c 128
 1292.17 72.1667 1117.67 0 913 0 c 256
 708.333 0 533.833 72.1667 389.5 216.5 c 128
 245.167 360.833 173 535.333 173 740 c 256
920 541 m 1
 920 485 l 2
 920 431 917.167 400.5 911.5 393.5 c 128
 905.833 386.5 878.667 381.333 830 378 c 1
 819 377 l 1
 819 296 l 1
 1177 296 l 1
 1177 377 l 1
 1166 378 l 1
 1118.67 381.334 1091.83 387.001 1085.5 395 c 128
 1079.17 403 1076 433 1076 485 c 2
 1076 541 l 1
 1185 541 l 1
 1185 693 l 1
 1076 693 l 1
 1076 1235 l 1
 942 1235 l 1
 477 662 l 1
 477 541 l 1
 920 541 l 1
588 693 m 1
 920 1099 l 1
 920 693 l 1
 588 693 l 1
EndSplineSet
EndChar

StartChar: uni0019
Encoding: 25 25 20
Width: 1826
VWidth: 2048
Flags: HW
LayerCount: 2
Fore
SplineSet
173 740 m 256
 173 944.667 245.167 1119.17 389.5 1263.5 c 128
 533.833 1407.83 708.333 1480 913 1480 c 256
 1117.67 1480 1292.17 1407.83 1436.5 1263.5 c 128
 1580.83 1119.17 1653 944.667 1653 740 c 256
 1653 535.333 1580.83 360.833 1436.5 216.5 c 128
 1292.17 72.1667 1117.67 0 913 0 c 256
 708.333 0 533.833 72.1667 389.5 216.5 c 128
 245.167 360.833 173 535.333 173 740 c 256
658 284 m 1
 698.001 274.667 734.834 267.5 768.5 262.5 c 128
 802.168 257.5 833.001 255 861 255 c 0
 975 255 1064.33 280.833 1129 332.5 c 128
 1193.67 384.167 1226 455.333 1226 546 c 0
 1226 745.333 1087 845 809 845 c 0
 797.665 844.974 778.332 844.308 751 843 c 1
 751 1041 l 1
 1208 1041 l 1
 1208 1205 l 1
 675 1205 l 1
 675 757 l 1
 699.667 759.678 721.334 761.012 740 761 c 0
 932 761 1028 684.667 1028 532 c 0
 1028 401.333 972 336 860 336 c 0
 817.333 336 788.167 343.833 772.5 359.5 c 128
 756.833 375.167 747.333 406 744 452 c 1
 743 475 l 1
 658 475 l 1
 658 284 l 1
EndSplineSet
EndChar

StartChar: uni001A
Encoding: 26 26 21
Width: 1826
VWidth: 2048
Flags: HW
LayerCount: 2
Fore
SplineSet
173 740 m 256
 173 944.667 245.167 1119.17 389.5 1263.5 c 128
 533.833 1407.83 708.333 1480 913 1480 c 256
 1117.67 1480 1292.17 1407.83 1436.5 1263.5 c 128
 1580.83 1119.17 1653 944.667 1653 740 c 256
 1653 535.333 1580.83 360.833 1436.5 216.5 c 128
 1292.17 72.1667 1117.67 0 913 0 c 256
 708.333 0 533.833 72.1667 389.5 216.5 c 128
 245.167 360.833 173 535.333 173 740 c 256
744 775 m 1
 744 800 l 2
 744.001 1031.33 821.334 1147 976 1147 c 0
 1016 1147 1053.67 1138 1089 1120 c 0
 1106.33 1111.33 1116.33 1080.33 1119 1027 c 1
 1121 1004 l 1
 1206 1004 l 1
 1206 1191 l 1
 1166.67 1203.67 1126 1213 1084 1219 c 128
 1042 1225 998.667 1228 954 1228 c 0
 830.666 1228 732.333 1182 659 1090 c 128
 585.666 998 548.999 875 549 721 c 0
 549 574.333 581.5 460 646.5 378 c 128
 711.5 296 802 255 918 255 c 0
 1015.33 255 1095.83 286.5 1159.5 349.5 c 128
 1223.17 412.5 1255 492.667 1255 590 c 0
 1255 675.333 1227.83 745.667 1173.5 801 c 128
 1119.17 856.333 1050 884 966 884 c 0
 872.667 884 798.667 847.667 744 775 c 1
749 614 m 0
 749 726.667 802.667 783 910 783 c 0
 1015.33 782.999 1068 707.333 1068 556 c 0
 1068 409.333 1020.67 336 926 336 c 0
 808 336 749 428.667 749 614 c 0
EndSplineSet
EndChar

StartChar: uni001B
Encoding: 27 27 22
Width: 1826
VWidth: 2048
Flags: HW
LayerCount: 2
Fore
SplineSet
173 740 m 256
 173 944.667 245.167 1119.17 389.5 1263.5 c 128
 533.833 1407.83 708.333 1480 913 1480 c 256
 1117.67 1480 1292.17 1407.83 1436.5 1263.5 c 128
 1580.83 1119.17 1653 944.667 1653 740 c 256
 1653 535.333 1580.83 360.833 1436.5 216.5 c 128
 1292.17 72.1667 1117.67 0 913 0 c 256
 708.333 0 533.833 72.1667 389.5 216.5 c 128
 245.167 360.833 173 535.333 173 740 c 256
657 247 m 1
 860 247 l 1
 871.333 478.333 1003.33 742.333 1256 1039 c 1
 1256 1174 l 1
 618 1174 l 1
 618 999 l 1
 1130 999 l 1
 1042 892 l 1
 872 682.667 768.167 546.5 730.5 483.5 c 128
 692.833 420.5 668.333 341.667 657 247 c 1
EndSplineSet
EndChar

StartChar: uni001C
Encoding: 28 28 23
Width: 1826
VWidth: 2048
Flags: HW
LayerCount: 2
Fore
SplineSet
173 740 m 256
 173 944.667 245.167 1119.17 389.5 1263.5 c 128
 533.833 1407.83 708.333 1480 913 1480 c 256
 1117.67 1480 1292.17 1407.83 1436.5 1263.5 c 128
 1580.83 1119.17 1653 944.667 1653 740 c 256
 1653 535.333 1580.83 360.833 1436.5 216.5 c 128
 1292.17 72.1667 1117.67 0 913 0 c 256
 708.333 0 533.833 72.1667 389.5 216.5 c 128
 245.167 360.833 173 535.333 173 740 c 256
748 766 m 1
 628 701.333 568 616.333 568 511 c 0
 568 432.333 598.5 370 659.5 324 c 128
 720.5 278 803.333 255 908 255 c 0
 1010.67 255 1094 280.667 1158 332 c 128
 1222 383.333 1254 450.667 1254 534 c 0
 1254 641.333 1186 730.333 1050 801 c 1
 1157.33 859.668 1211 931.334 1211 1016 c 0
 1211 1080 1185 1131.33 1133 1170 c 128
 1081 1208.67 1011.67 1228 925 1228 c 0
 833.666 1228 759.833 1205.33 703.5 1160 c 128
 647.166 1114.67 618.999 1055.33 619 982 c 0
 619 898.667 662 826.667 748 766 c 1
976 840 m 1
 924 868 l 2
 824 921.333 774 973.667 774 1025 c 0
 774 1059.67 787.667 1088.67 815 1112 c 128
 842.333 1135.34 876 1147 916 1147 c 0
 1006 1147 1051 1099.33 1051 1004 c 0
 1051 944.666 1026 890 976 840 c 1
807 723 m 1
 888 680 l 2
 975.334 634 1030.17 600 1052.5 578 c 128
 1074.84 556 1086 525.667 1086 487 c 0
 1086 443 1070.16 406.833 1038.5 378.5 c 128
 1006.83 350.167 966.333 336 917 336 c 0
 801 336 743 401 743 531 c 0
 743.001 595 764.335 659 807 723 c 1
EndSplineSet
EndChar

StartChar: uni001D
Encoding: 29 29 24
Width: 1826
VWidth: 2048
Flags: HW
LayerCount: 2
Fore
SplineSet
173 740 m 256
 173 944.667 245.167 1119.17 389.5 1263.5 c 128
 533.833 1407.83 708.333 1480 913 1480 c 256
 1117.67 1480 1292.17 1407.83 1436.5 1263.5 c 128
 1580.83 1119.17 1653 944.667 1653 740 c 256
 1653 535.333 1580.83 360.833 1436.5 216.5 c 128
 1292.17 72.1667 1117.67 0 913 0 c 256
 708.333 0 533.833 72.1667 389.5 216.5 c 128
 245.167 360.833 173 535.333 173 740 c 256
1091 708 m 1
 1091 683 l 2
 1091 451.667 1013.33 336 858 336 c 0
 818.665 336 781.332 345 746 363 c 0
 728.664 371.667 718.331 402.333 715 455 c 1
 714 479 l 1
 629 479 l 1
 629 292 l 1
 669.667 280 710.834 270.833 752.5 264.5 c 128
 794.167 258.167 836.667 255 880 255 c 0
 1004 255 1102.5 300.833 1175.5 392.5 c 128
 1248.5 484.167 1285 607.333 1285 762 c 0
 1285 908 1252.5 1022.17 1187.5 1104.5 c 128
 1122.5 1186.84 1032.33 1228 917 1228 c 0
 819.667 1228 739.167 1196.5 675.5 1133.5 c 128
 611.833 1070.5 580 990.333 580 893 c 0
 580 807.666 607.167 737.333 661.5 682 c 128
 715.833 626.666 784.667 598.999 868 599 c 0
 962 599.001 1036.33 635.334 1091 708 c 1
1085 869 m 0
 1085 756.333 1031.33 700 924 700 c 0
 819.333 700 767 776 767 928 c 0
 767 1074 814.334 1147 909 1147 c 0
 1026.33 1147 1085 1054.33 1085 869 c 0
EndSplineSet
EndChar

StartChar: uni001E
Encoding: 30 30 25
Width: 1826
VWidth: 2048
Flags: HW
LayerCount: 2
Fore
SplineSet
173 740 m 256
 173 944.667 245.167 1119.17 389.5 1263.5 c 128
 533.833 1407.83 708.333 1480 913 1480 c 256
 1117.67 1480 1292.17 1407.83 1436.5 1263.5 c 128
 1580.83 1119.17 1653 944.667 1653 740 c 256
 1653 535.333 1580.83 360.833 1436.5 216.5 c 128
 1292.17 72.1667 1117.67 0 913 0 c 256
 708.333 0 533.833 72.1667 389.5 216.5 c 128
 245.167 360.833 173 535.333 173 740 c 256
742 1207 m 1
 417 1184 l 1
 417 1099 l 1
 441 1101 467 1102 495 1102 c 0
 521 1101.99 537.5 1096.66 544.5 1086 c 128
 551.5 1075.33 555 1050 555 1010 c 2
 555 461 l 2
 555 421.667 551.167 395 543.5 381 c 128
 535.833 367 520.333 359 497 357 c 0
 459 354.331 432.333 352.997 417 353 c 1
 417 271 l 1
 881 271 l 1
 881 353 l 1
 865.667 353 838.667 354.333 800 357 c 1
 774.667 359.667 758.667 366.667 752 378 c 128
 745.333 389.334 742 417 742 461 c 2
 742 1207 l 1
1166 253 m 256
 1257.33 253 1332.67 298.833 1392 390.5 c 128
 1451.34 482.167 1481 598.667 1481 740 c 256
 1481 881.333 1451.33 998 1392 1090 c 128
 1332.67 1182 1257.33 1228 1166 1228 c 256
 1074.67 1228 999.5 1182 940.5 1090 c 128
 881.5 998 852 881.333 852 740 c 256
 852 598.667 881.5 482.167 940.5 390.5 c 128
 999.501 298.833 1074.67 253 1166 253 c 256
1166 339 m 0
 1084 339 1043 472.667 1043 740 c 256
 1043 1007.33 1083.67 1141 1165 1141 c 0
 1248.34 1141 1290 1007.33 1290 740 c 256
 1290 472.667 1248.66 339 1166 339 c 0
EndSplineSet
EndChar

StartChar: exclam
Encoding: 33 33 26
Width: 1825
VWidth: 2048
Flags: HW
LayerCount: 2
Fore
SplineSet
389 217 m 1
 389 1263 l 1
 1436 1263 l 1
 1436 217 l 1
 389 217 l 1
EndSplineSet
EndChar

StartChar: quotedbl
Encoding: 34 34 27
Width: 1825
VWidth: 2048
Flags: HW
LayerCount: 2
Fore
SplineSet
173 740 m 1
 913 1480 l 1
 1653 740 l 1
 913 0 l 1
 173 740 l 1
EndSplineSet
EndChar

StartChar: numbersign
Encoding: 35 35 28
Width: 1825
VWidth: 2048
Flags: HW
LayerCount: 2
Fore
SplineSet
209 969 m 1
 913 1480 l 1
 1617 969 l 1
 1348 141 l 1
 478 141 l 1
 209 969 l 1
EndSplineSet
EndChar

StartChar: dollar
Encoding: 36 36 29
Width: 1825
VWidth: 2048
Flags: HW
LayerCount: 2
Fore
SplineSet
478 1339 m 1
 1348 1339 l 1
 1617 511 l 1
 913 0 l 1
 209 511 l 1
 478 1339 l 1
EndSplineSet
EndChar

StartChar: percent
Encoding: 37 37 30
Width: 1825
VWidth: 2048
Flags: HW
LayerCount: 2
Fore
SplineSet
173 740 m 1
 543 1381 l 1
 1283 1381 l 1
 1653 740 l 1
 1283 99 l 1
 543 99 l 1
 173 740 l 1
EndSplineSet
EndChar

StartChar: ampersand
Encoding: 38 38 31
Width: 1825
VWidth: 2048
Flags: HW
LayerCount: 2
Fore
SplineSet
272 1110 m 1
 913 1480 l 1
 1554 1110 l 1
 1554 370 l 1
 913 0 l 1
 272 370 l 1
 272 1110 l 1
EndSplineSet
EndChar

StartChar: quotesingle
Encoding: 39 39 32
Width: 1825
VWidth: 2048
Flags: HW
LayerCount: 2
Fore
SplineSet
229 457 m 1
 229 1023 l 1
 629 1424 l 1
 1196 1424 l 1
 1596 1023 l 1
 1596 457 l 1
 1196 56 l 1
 629 56 l 1
 229 457 l 1
EndSplineSet
EndChar

StartChar: parenleft
Encoding: 40 40 33
Width: 1825
VWidth: 2048
Flags: HW
LayerCount: 2
Fore
SplineSet
173 740 m 1
 390 1263 l 1
 913 1480 l 1
 1436 1263 l 1
 1653 740 l 1
 1436 217 l 1
 913 0 l 1
 390 217 l 1
 173 740 l 1
EndSplineSet
EndChar

StartChar: parenright
Encoding: 41 41 34
Width: 1825
VWidth: 2048
Flags: HW
LayerCount: 2
Fore
SplineSet
209 969 m 1
 695 1039 l 1
 912 1480 l 1
 1129 1039 l 1
 1615 969 l 1
 1263 626 l 1
 1347 142 l 1
 912 371 l 1
 477 142 l 1
 560 626 l 1
 209 969 l 1
EndSplineSet
EndChar

StartChar: asterisk
Encoding: 42 42 35
Width: 1825
VWidth: 2048
Flags: HW
LayerCount: 2
Fore
SplineSet
806 925 m 1
 913 1480 l 1
 1019 925 l 1
 1554 1110 l 1
 1127 740 l 1
 1554 370 l 1
 1019 555 l 1
 913 0 l 1
 806 555 l 1
 271 370 l 1
 699 740 l 1
 271 1110 l 1
 806 925 l 1
EndSplineSet
EndChar

StartChar: comma
Encoding: 44 44 36
Width: 1825
VWidth: 2048
Flags: HW
LayerCount: 2
Fore
SplineSet
671 640 m 1
 173 740 l 1
 671 840 l 1
 390 1263 l 1
 813 982 l 1
 913 1480 l 1
 1013 982 l 1
 1436 1263 l 1
 1154 840 l 1
 1653 740 l 1
 1154 640 l 1
 1436 217 l 1
 1013 498 l 1
 913 0 l 1
 812 498 l 1
 390 217 l 1
 671 640 l 1
EndSplineSet
EndChar

StartChar: hyphen
Encoding: 45 45 37
Width: 1825
VWidth: 2048
Flags: HW
LayerCount: 2
Fore
SplineSet
390 1263 m 1
 696 1263 l 1
 913 1480 l 1
 1129 1263 l 1
 1436 1263 l 1
 1436 957 l 1
 1653 740 l 1
 1436 524 l 1
 1436 217 l 1
 1129 217 l 1
 913 0 l 1
 696 217 l 1
 390 217 l 1
 390 524 l 1
 173 740 l 1
 390 957 l 1
 390 1263 l 1
EndSplineSet
EndChar

StartChar: period
Encoding: 46 46 38
Width: 1825
VWidth: 2048
Flags: HW
LayerCount: 2
Fore
SplineSet
1098 926 m 1
 1554 1110 l 1
 1165 808 l 1
 1653 740 l 1
 1165 673 l 1
 1554 370 l 1
 1098 555 l 1
 1283 99 l 1
 980 487 l 1
 913 0 l 1
 845 488 l 1
 543 99 l 1
 727 555 l 1
 272 370 l 1
 660 673 l 1
 173 740 l 1
 660 808 l 1
 272 1110 l 1
 727 926 l 1
 543 1381 l 1
 845 993 l 1
 913 1480 l 1
 980 993 l 1
 1283 1381 l 1
 1098 926 l 1
EndSplineSet
EndChar

StartChar: slash
Encoding: 47 47 39
Width: 1825
VWidth: 2048
Flags: HW
LayerCount: 2
Fore
SplineSet
913 1480 m 1
 1012 1110 l 1
 1283 1382 l 1
 1184 1011 l 1
 1555 1110 l 1
 1283 839 l 1
 1653 740 l 1
 1283 641 l 1
 1555 370 l 1
 1184 469 l 1
 1283 99 l 1
 1012 370 l 1
 913 0 l 1
 814 370 l 1
 543 99 l 1
 642 469 l 1
 272 370 l 1
 543 641 l 1
 173 740 l 1
 543 839 l 1
 272 1110 l 1
 642 1011 l 1
 543 1382 l 1
 814 1110 l 1
 913 1480 l 1
EndSplineSet
EndChar

StartChar: zero
Encoding: 48 48 40
Width: 1825
VWidth: 2048
Flags: HW
LayerCount: 2
Fore
SplineSet
925 0 m 1
 901 0 l 1
 901 194.667 828.333 364.667 683 510 c 128
 537.667 655.333 367.667 728 173 728 c 1
 173 752 l 1
 367.667 752.001 537.667 824.834 683 970.5 c 128
 828.333 1116.17 901 1286 901 1480 c 1
 925 1480 l 1
 925 1285.33 997.667 1115.33 1143 970 c 128
 1288.33 824.666 1458.33 751.999 1653 752 c 1
 1653 728 l 1
 1458.33 728 1288.33 655.333 1143 510 c 128
 997.666 364.667 925 194.667 925 0 c 1
EndSplineSet
EndChar

StartChar: one
Encoding: 49 49 41
Width: 1825
VWidth: 2048
Flags: HW
LayerCount: 2
Fore
SplineSet
398 220 m 1
 381 238 l 1
 519.667 387.333 589 559 589 753 c 0
 589 945 519.667 1116.33 381 1267 c 1
 398 1284 l 1
 548 1145.33 719.667 1076 913 1076 c 256
 1106.33 1076 1277.67 1145.33 1427 1284 c 1
 1445 1267 l 1
 1306.33 1116.33 1237 944.667 1237 752 c 0
 1237 558.667 1306.33 387.333 1445 238 c 1
 1427 220 l 1
 1276.33 358.667 1105 428 913 428 c 0
 720.333 428 548.667 358.667 398 220 c 1
EndSplineSet
EndChar

StartChar: equal
Encoding: 61 61 42
Width: 2319
VWidth: 2048
Flags: HW
LayerCount: 2
Fore
SplineSet
1900 1283 m 1
 1900 987 l 1
 1653 987 l 1
 1653 1283 l 1
 1900 1283 l 1
765 839 m 1
 1406 839 l 1
 1406 790 l 1
 765 790 l 1
 765 839 l 1
962 444 m 1
 1604 444 l 1
 1604 395 l 1
 962 395 l 1
 962 444 l 1
864 641 m 1
 1505 641 l 1
 1505 592 l 1
 864 592 l 1
 864 641 l 1
222 1431 m 1
 222 49 l 1
 2097 49 l 1
 2097 1431 l 1
 222 1431 l 1
173 1480 m 1
 2147 1480 l 1
 2147 0 l 1
 173 0 l 1
 173 1480 l 1
EndSplineSet
EndChar

StartChar: greater
Encoding: 62 62 43
Width: 2045
VWidth: 2048
Flags: HW
LayerCount: 2
Fore
SplineSet
858 642 m 1
 780 596 l 1
 702 551.333 652.333 514.667 631 486 c 128
 609.667 457.333 600.667 416.333 604 363 c 2
 607 322 l 2
 609 290 610 269.666 610 261 c 0
 609.999 200.333 587.333 148 542 104 c 0
 496 59.3333 441.333 37 378 37 c 0
 315.333 37 261.333 59.6667 216 105 c 128
 170.667 150.333 148 204.667 148 268 c 0
 148 386 225 465.333 379 506 c 1
 414 516 l 1
 520.667 544 593.667 604.667 633 698 c 1
 700 740 l 1
 637 781 l 1
 587.667 879.001 503.333 944.334 384 977 c 1
 335 991 l 1
 212.333 1025 151 1099.67 151 1215 c 0
 151 1278.33 173.167 1332.17 217.5 1376.5 c 128
 261.833 1420.84 316.333 1443 381 1443 c 0
 449 1443 504.333 1419.66 547 1373 c 256
 589.667 1326.33 611.001 1265.67 611 1191 c 2
 611 1175 l 1
 607 1134 l 2
 605.648 1123.32 604.982 1112.66 605 1102 c 0
 605 1022 650.667 956.333 742 905 c 2
 858 839 l 1
 792 829.666 759 796.333 759 739 c 0
 759 683.666 792 651.333 858 642 c 1
858 839 m 1
 1476 1221 l 1
 1614 1307.67 1704.67 1351 1748 1351 c 0
 1796.67 1351 1839.33 1323.66 1876 1269 c 1
 1897 1239 l 1
 1024 739 l 1
 1889 235 l 1
 1870 207 l 1
 1830.67 147 1787.33 117 1740 117 c 0
 1702 117 1614 161.333 1476 250 c 1
 858 642 l 1
 924 649.333 957 682.333 957 741 c 256
 957 799.667 924 832.334 858 839 c 1
247 1215 m 0
 247 1179.67 259.667 1149.33 285 1124 c 128
 310.334 1098.67 341 1086 377 1086 c 256
 413 1086 443.5 1098.5 468.5 1123.5 c 128
 493.5 1148.5 506 1179 506 1215 c 256
 506 1251 493.5 1281.67 468.5 1307 c 128
 443.5 1332.34 413 1345.01 377 1345 c 256
 341 1345 310.333 1332.33 285 1307 c 128
 259.667 1281.67 247 1251 247 1215 c 0
247 265 m 0
 247 229.667 259.667 199.333 285 174 c 128
 310.334 148.667 341 136 377 136 c 256
 413 136 443.5 148.5 468.5 173.5 c 128
 493.5 198.5 506 229 506 265 c 256
 506 301 493.333 331.667 468 357 c 128
 442.667 382.334 412.333 395 377 395 c 0
 341 395 310.333 382.333 285 357 c 128
 259.667 331.667 247 301 247 265 c 0
EndSplineSet
EndChar

StartChar: question
Encoding: 63 63 44
Width: 989
VWidth: 2048
Flags: HW
LayerCount: 2
Fore
SplineSet
674 54 m 1
 599.333 10 514 -20.3333 418 -37 c 1
 407.333 12.3333 401.999 60.3333 402 107 c 0
 402 187.667 423.333 272.333 466 361 c 1
 484 361 l 2
 566 361 607 485.333 607 734 c 0
 607 990.667 566 1119 484 1119 c 2
 466 1119 l 1
 416.667 1204.33 392 1288.67 392 1372 c 0
 392.001 1420.67 400.667 1469 418 1517 c 1
 507.333 1502.33 592.667 1472 674 1426 c 1
 713.333 1321.33 742.667 1212.17 762 1098.5 c 128
 781.333 984.833 791 866.333 791 743 c 0
 790.995 616.333 781.329 495.667 762 381 c 128
 742.666 266.333 713.333 157.333 674 54 c 1
381 -37 m 1
 341 -37 l 2
 290.333 -37 255.333 -26.1667 236 -4.5 c 128
 216.666 17.1667 207 57.3333 207 116 c 0
 207 279.333 266.667 361 386 361 c 2
 424 361 l 1
 382 281.667 361 197 361 107 c 0
 361.001 55.6667 367.667 7.66667 381 -37 c 1
418 1119 m 1
 387 1119 l 2
 320.333 1119 272 1138.17 242 1176.5 c 128
 212 1214.83 197 1276.67 197 1362 c 0
 197 1422.67 207 1463.67 227 1485 c 128
 247 1506.34 285.333 1517.01 342 1517 c 2
 378 1517 l 1
 359.332 1461 349.999 1411 350 1367 c 0
 350 1281 372.667 1198.33 418 1119 c 1
EndSplineSet
EndChar

StartChar: seven
Encoding: 55 55 45
Width: 2110
VWidth: 2048
Flags: HW
LayerCount: 2
Fore
SplineSet
74 -37 m 1
 404 470 l 1
 1779 1517 l 1
 1936.33 1469.67 2022 1358.67 2036 1184 c 1
 657 137 l 1
 74 -37 l 1
1534 1268 m 1
 1634.67 1214.67 1697.33 1130 1722 1014 c 1
 1979 1209 l 1
 1955.67 1331.67 1892.33 1415.33 1789 1460 c 1
 1534 1268 l 1
526 502 m 1
 537.333 504.667 546.667 506 554 506 c 0
 580.668 506 594.001 493.333 594 468 c 1
 593 458 l 1
 1422 1093 l 1
 1400 1109.67 1378.33 1122.67 1357 1132 c 1
 526 502 l 1
622 420 m 1
 652.668 412.667 668.001 393 668 361 c 1
 1501 999 l 1
 1491 1021 1477 1040.67 1459 1058 c 1
 622 420 l 1
697 322 m 1
 709.669 321.331 719.003 318.164 725 312.5 c 128
 731 306.833 734 298.666 734 288 c 0
 734 278.667 729.667 265 721 247 c 1
 1549 880 l 1
 1541 908.667 1532.33 933.667 1523 955 c 1
 697 322 l 1
258 157 m 1
 315 85 l 1
 626 177 l 1
 671.333 217 694 246.667 694 266 c 0
 693.989 274 691.823 279.833 687.5 283.5 c 128
 683.161 287.167 676.328 289 667 289 c 0
 647.666 289 614.333 277.333 567 254 c 1
 607 292 627 323.667 627 349 c 0
 627 361.667 623.5 371.167 616.5 377.5 c 128
 609.5 383.835 598.667 387.001 584 387 c 0
 568.666 387 537.333 375.666 490 353 c 1
 532 389 553 420.667 553 448 c 0
 553 455.333 551 460.833 547 464.5 c 128
 543 468.167 536.667 470 528 470 c 0
 498 470 466 457 432 431 c 1
 258 157 l 1
EndSplineSet
EndChar

StartChar: eight
Encoding: 56 56 46
Width: 2752
VWidth: 2048
Flags: HW
LayerCount: 2
Fore
SplineSet
1662 381 m 1
 2068 803 l 2
 2209.33 950.333 2330.33 1024 2431 1024 c 0
 2503.67 1024 2563.01 998.5 2609 947.5 c 128
 2655 896.5 2678 830.667 2678 750 c 0
 2678 680.666 2663 645.999 2633 646 c 0
 2605.65 646 2591.98 660 2592 688 c 0
 2592 694.669 2593 701.336 2595 708 c 2
 2603 732 l 2
 2613 761.333 2618 784 2618 800 c 0
 2617.98 848 2599.81 889 2563.5 923 c 128
 2527.16 957 2483.32 974 2432 974 c 0
 2344 974 2231.67 901.667 2095 757 c 2
 1662 301 l 1
 1646 213.667 1604.5 141.667 1537.5 85 c 128
 1470.5 28.3333 1393.66 0 1307 0 c 0
 1205.67 0 1124.5 31.6667 1063.5 95 c 128
 1002.5 158.333 964.667 250.333 950 371 c 1
 962 386.334 968 401 968 415 c 0
 967.995 435 960.328 450 945 460 c 128
 929.667 470 906.667 475 876 475 c 0
 811.333 475 779 454.333 779 413 c 0
 779 399 785.667 385 799 371 c 1
 778.333 243.667 738.5 150 679.5 90 c 128
 620.5 30 539.333 0 436 0 c 0
 334.667 0 249 36.8333 179 110.5 c 128
 109 184.167 74 274.333 74 381 c 1
 540 855 l 2
 652 969 755 1026 849 1026 c 0
 919 1026 976.834 1000.33 1022.5 949 c 128
 1068.17 897.667 1091 832.333 1091 753 c 0
 1091 683.666 1076 648.999 1046 649 c 0
 1018.66 649 1005 662.667 1005 690 c 0
 1005 696.669 1006 703.336 1008 710 c 2
 1016 735 l 2
 1026 764.333 1031 787 1031 803 c 0
 1031 850.333 1013.67 890.5 979 923.5 c 128
 944.333 956.5 902.333 973 853 973 c 0
 765 973 668 918.667 562 810 c 2
 145 381 l 1
 644 381 l 2
 703.333 381 733 392 733 414 c 2
 733 433 l 2
 733 493 782.334 523 881 523 c 0
 917.668 522.998 949.001 514.331 975 497 c 0
 1001 479 1014 457.666 1014 433 c 2
 1014 420 l 2
 1014 394 1044.33 381 1105 381 c 2
 1662 381 l 1
585 331 m 2
 282 331 l 2
 220 330.997 181.167 328.664 165.5 324 c 128
 149.833 319.333 142 307.333 142 288 c 0
 142 234 174.333 181.833 239 131.5 c 128
 303.667 81.1667 371 56 441 56 c 0
 509.667 56 572.167 77.6667 628.5 121 c 128
 684.833 164.333 713 213 713 267 c 0
 713 293.667 705.167 311 689.5 319 c 128
 673.833 327 639 331 585 331 c 2
1482 331 m 2
 1182 331 l 2
 1118.67 331 1078 327 1060 319 c 128
 1042 311 1033 292.666 1033 264 c 0
 1033 212 1061.5 164.333 1118.5 121 c 128
 1175.5 77.6667 1238.33 56 1307 56 c 0
 1375 56 1441.5 81.3333 1506.5 132 c 128
 1571.5 182.667 1604 234.667 1604 288 c 0
 1604 316.667 1563.33 331 1482 331 c 2
EndSplineSet
EndChar

StartChar: nine
Encoding: 57 57 47
Width: 1830
VWidth: 2048
Flags: HW
LayerCount: 2
Fore
SplineSet
835 1431 m 1
 835 1488.34 861.667 1517 915 1517 c 256
 968.333 1517 995 1488.33 995 1431 c 1
 1133.67 1416.33 1240 1355.67 1314 1249 c 0
 1343.34 1207 1368.67 1148.33 1390 1073 c 128
 1411.34 997.667 1422.01 929.667 1422 869 c 2
 1422 797 l 2
 1422 730.333 1433.5 671.833 1456.5 621.5 c 128
 1479.5 571.166 1526.67 499.666 1598 407 c 1
 1636 357 l 2
 1666.67 317 1682 279.667 1682 245 c 0
 1682 163 1609.83 95.5 1465.5 42.5 c 128
 1321.17 -10.5 1137.67 -37 915 -37 c 0
 691.667 -37 508 -10.5 364 42.5 c 128
 220 95.5 148 163 148 245 c 0
 148 279.667 163.333 317 194 357 c 2
 232 407 l 1
 303.333 499.667 350.333 571.167 373 621.5 c 128
 395.667 671.833 407 730.333 407 797 c 2
 407 869 l 2
 407 929.667 417.833 997.667 439.5 1073 c 128
 461.167 1148.33 486.667 1207 516 1249 c 0
 590 1355.67 696.333 1416.33 835 1431 c 1
280 385 m 1
 458 457 670 493 916 493 c 0
 1161.33 493 1373 457 1551 385 c 1
 1478.33 483 1430.33 557.5 1407 608.5 c 128
 1383.67 659.5 1372 715 1372 775 c 1
 1369 867 l 1
 1369 997 1340.33 1111 1283 1209 c 0
 1211.67 1332.33 1089.33 1394 916 1394 c 256
 742.667 1394 620 1332.33 548 1209 c 0
 491.333 1111 463 997 463 867 c 1
 460 775 l 1
 460 715 448.333 659.833 425 609.5 c 128
 401.667 559.167 353.333 484.333 280 385 c 1
460 395 m 1
 284.667 343.667 197 290.333 197 235 c 0
 197 174.333 267.667 122 409 78 c 128
 550.333 34 718.667 12 914 12 c 0
 1112 12 1281.17 34 1421.5 78 c 128
 1561.83 122 1632 175 1632 237 c 0
 1632 291 1559.5 339 1414.5 381 c 128
 1269.5 423 1103.67 444 917 444 c 0
 888.333 444 852.667 443 810 441 c 1
 815.333 423.667 818 408 818 394 c 0
 817.998 342.667 800.832 299.167 766.5 263.5 c 128
 732.166 227.833 690.333 210 641 210 c 0
 589 210 545.833 227.5 511.5 262.5 c 128
 477.167 297.5 460 341.667 460 395 c 1
EndSplineSet
EndChar

StartChar: colon
Encoding: 58 58 48
Width: 2492
VWidth: 2048
Flags: HW
LayerCount: 2
Fore
SplineSet
2320 -25 m 1
 1442 41 l 1
 1410 23.6667 1378.66 10.5 1348 1.5 c 128
 1317.33 -7.5 1287.66 -12 1259 -12 c 0
 1229.67 -12 1198.17 -7.5 1164.5 1.5 c 128
 1130.83 10.5 1095 23.6667 1057 41 c 1
 173 -25 l 1
 173 1365 l 1
 360 1376 l 1
 432 1517 l 1
 510.667 1537.67 585.167 1553.17 655.5 1563.5 c 128
 725.833 1573.87 791.667 1579.04 853 1579 c 0
 959.667 1578.99 1043.17 1565.16 1103.5 1537.5 c 128
 1163.83 1509.83 1211.33 1463.33 1246 1398 c 1
 1277.33 1462 1324.67 1508.17 1388 1536.5 c 128
 1451.33 1564.84 1538.33 1579.01 1649 1579 c 0
 1705.67 1579 1767.83 1573.83 1835.5 1563.5 c 128
 1903.17 1553.17 1976.67 1537.67 2056 1517 c 1
 2124 1387 l 1
 2320 1376 l 1
 2320 -25 l 1
2270 28 m 1
 2270 1332 l 1
 2147 1339 l 1
 2196 1258 l 1
 2196 110 l 1
 1395 160 l 1
 1356.33 127.333 1307 111 1247 111 c 0
 1187.67 111 1139 127.333 1101 160 c 1
 296 110 l 1
 296 1258 l 1
 333 1329 l 1
 222 1323 l 1
 222 28 l 1
 1073 91 l 1
 1106.33 73 1138.33 59.5 1169 50.5 c 128
 1199.67 41.5 1229.33 37 1258 37 c 0
 1284.67 37 1312 41.5 1340 50.5 c 128
 1368 59.5 1397 73 1427 91 c 1
 2270 28 l 1
346 1248 m 1
 346 205 l 1
 444 396 l 1
 444 1428 l 1
 346 1248 l 1
2048 1424 m 1
 2048 396 l 1
 2147 210 l 1
 2147 1237 l 1
 2048 1424 l 1
384 160 m 1
 1115 218 l 1
 1136.34 190.667 1172 171.333 1222 160 c 1
 1212.67 244 1180.17 304.167 1124.5 340.5 c 128
 1068.83 376.834 981.332 395.001 862 395 c 0
 806.667 394.998 747.167 391.164 683.5 383.5 c 128
 619.833 375.833 552 364.333 480 349 c 1
 384 160 l 1
2117 160 m 1
 2021 346 l 1
 1943.67 362.667 1871.83 375 1805.5 383 c 128
 1739.17 391 1678.67 395 1624 395 c 0
 1388.67 395 1271 316.667 1271 160 c 1
 1320.34 168 1358 187.667 1384 219 c 1
 2117 160 l 1
494 403 m 1
 571.333 417 639.833 427.333 699.5 434 c 128
 759.167 440.667 810 444 852 444 c 0
 1023.33 444 1146.67 402.667 1222 320 c 1
 1222 1251 l 2
 1222 1344.33 1193 1414.17 1135 1460.5 c 128
 1077 1506.84 989.667 1530 873 1530 c 0
 813 1530 751.5 1525.83 688.5 1517.5 c 128
 625.5 1509.17 560.667 1496.67 494 1480 c 1
 494 403 l 1
1999 1482 m 1
 1925.67 1498 1858 1510 1796 1518 c 128
 1734 1526 1677.67 1530 1627 1530 c 0
 1503.67 1530 1410.33 1504.66 1347 1454 c 0
 1296.33 1414 1271 1345.66 1271 1249 c 2
 1271 316 l 1
 1317 364.667 1366 398.167 1418 416.5 c 128
 1470 434.834 1541.67 444.001 1633 444 c 0
 1693.67 444 1754.5 440.5 1815.5 433.5 c 128
 1876.5 426.5 1937.67 415.666 1999 401 c 1
 1999 1482 l 1
EndSplineSet
EndChar

StartChar: semicolon
Encoding: 59 59 49
Width: 1233
VWidth: 2048
Flags: HW
LayerCount: 2
Fore
SplineSet
173 149 m 2
 173 225 l 2
 173 289.667 181.167 340.833 197.5 378.5 c 128
 213.833 416.167 247.667 462.333 299 517 c 2
 431 656 l 2
 473 700.667 494 729.667 494 743 c 0
 494 757.668 468.333 791.001 417 843 c 2
 285 979 l 2
 240.333 1024.33 210.5 1066.33 195.5 1105 c 128
 180.5 1143.67 173 1197 173 1265 c 2
 173 1347 l 2
 173 1403.67 210 1446.17 284 1474.5 c 128
 358 1502.84 469 1517.01 617 1517 c 0
 913 1517 1061 1460.33 1061 1347 c 2
 1061 1265 l 2
 1061 1197 1053.5 1143.67 1038.5 1105 c 128
 1023.5 1066.33 993.667 1024.33 949 979 c 2
 817 843 l 2
 766.333 791 741 757.667 741 743 c 0
 741 729.667 761.667 700.667 803 656 c 1
 935 517 l 2
 986.333 462.333 1020.17 416.166 1036.5 378.5 c 128
 1052.85 340.833 1061.01 289.667 1061 225 c 2
 1061 149 l 2
 1061 87.6667 1023.33 41.3333 948 10 c 128
 872.666 -21.3333 762.333 -37 617 -37 c 256
 471.667 -37 361.333 -21.3333 286 10 c 128
 210.667 41.3333 173 87.6667 173 149 c 2
617 1283 m 0
 709 1283 794 1293.33 872 1314 c 128
 950.001 1334.67 988.335 1357 987 1381 c 0
 985.666 1405.67 949.833 1426.33 879.5 1443 c 128
 809.167 1459.67 721.667 1468 617 1468 c 0
 511.667 1468 423.667 1459.5 353 1442.5 c 128
 282.333 1425.5 247 1404.33 247 1379 c 0
 247 1355.67 286.167 1333.83 364.5 1313.5 c 128
 442.833 1293.17 527 1283 617 1283 c 0
222 1321 m 1
 222 1225 l 2
 222 1179 228.667 1143.5 242 1118.5 c 128
 255.333 1093.5 289.667 1051.33 345 992 c 2
 458 872 l 1
 514.667 810 543 766.333 543 741 c 0
 543 715 517 674 465 618 c 2
 335 479 l 2
 284.333 425 252.833 384.666 240.5 358 c 128
 228.166 331.333 222 291 222 237 c 2
 222 165 l 2
 222 121.667 237.667 91.6667 269 75 c 0
 345.667 33 461.667 12 617 12 c 0
 773 12 889 33 965 75 c 0
 996.333 91.6667 1012 121.667 1012 165 c 2
 1012 237 l 2
 1012 291 1005.83 331.333 993.5 358 c 128
 981.167 384.667 949.667 425 899 479 c 2
 769 618 l 2
 717 674 691 716.334 691 745 c 0
 691 767.667 719.667 810 777 872 c 2
 889 992 l 2
 944.333 1051.34 978.667 1093.5 992 1118.5 c 128
 1005.33 1143.5 1012 1179 1012 1225 c 2
 1012 1321 l 1
 920.666 1263 789 1234 617 1234 c 0
 531 1234 455.166 1241.33 389.5 1256 c 128
 323.833 1270.67 268 1292.33 222 1321 c 1
328 1123 m 1
 426.667 1060.33 523 1029 617 1029 c 256
 711 1029 807.667 1060.33 907 1123 c 1
 890.333 1096.33 853.667 1052.33 797 991 c 2
 714 900 l 2
 676.666 859.333 653.999 831.167 646 815.5 c 128
 637.998 799.833 631.331 770 626 726 c 0
 624.667 712.667 621.667 692.667 617 666 c 1
 612.333 692.667 609.333 712.667 608 726 c 0
 602.664 770.001 595.998 799.834 588 815.5 c 128
 579.999 831.167 557.333 859.334 520 900 c 2
 437 991 l 2
 380.333 1052.33 344 1096.33 328 1123 c 1
272 146 m 1
 282.667 186 322.667 224 392 260 c 2
 480 305 l 2
 535.333 333.667 568.5 353 579.5 363 c 128
 590.5 373 603 395.333 617 430 c 1
 631.668 395.333 644.335 373 655 363 c 128
 665.667 353 698.667 333.666 754 305 c 2
 842 260 l 2
 911.333 224 951.333 186 962 146 c 1
 877.333 103.333 762.333 82 617 82 c 256
 471.667 82 356.667 103.333 272 146 c 1
EndSplineSet
EndChar

StartChar: less
Encoding: 60 60 50
Width: 2319
VWidth: 2048
Flags: HW
LayerCount: 2
Fore
SplineSet
878 740 m 1
 222 1396 l 1
 222 84 l 1
 878 740 l 1
1407 705 m 1
 1230 529 l 2
 1210.67 509 1187.33 499 1160 499 c 256
 1132.67 499 1109 509 1089 529 c 2
 913 705 l 1
 257 49 l 1
 2062 49 l 1
 1407 705 l 1
1442 740 m 1
 2097 84 l 1
 2097 1396 l 1
 1442 740 l 1
257 1431 m 1
 1125 563 l 2
 1134.34 553.66 1146 548.994 1160 549 c 256
 1174 549 1185.67 553.667 1195 563 c 2
 2063 1431 l 1
 257 1431 l 1
173 1480 m 1
 2147 1480 l 1
 2147 0 l 1
 173 0 l 1
 173 1480 l 1
EndSplineSet
EndChar

StartChar: at
Encoding: 64 64 51
Width: 1431
VWidth: 2048
Flags: HW
LayerCount: 2
Fore
SplineSet
580 1382 m 1
 564 1405 l 2
 543.333 1433.67 532.333 1458.67 531 1480 c 1
 876 1480 l 1
 874 1458.67 863 1433.67 843 1405 c 2
 827 1382 l 1
 1012 1382 l 2
 1114 1382 1176.5 1370.33 1199.5 1347 c 128
 1222.5 1323.67 1234 1261.33 1234 1160 c 2
 1234 222 l 2
 1234 126.667 1220.16 65.8333 1192.5 39.5 c 128
 1164.83 13.1667 1100.33 0 999 0 c 2
 407 0 l 2
 306.333 0 242.167 13.1667 214.5 39.5 c 128
 186.833 65.8333 173 126.667 173 222 c 2
 173 1160 l 2
 173 1261.33 184.5 1323.67 207.5 1347 c 128
 230.5 1370.34 293 1382.01 395 1382 c 2
 580 1382 l 1
457 1234 m 1
 950 1234 l 1
 753 1332 l 1
 753 1382 l 1
 802 1431 l 1
 605 1431 l 1
 654 1382 l 1
 654 1332 l 1
 457 1234 l 1
549 1332 m 1
 395 1332 l 2
 313.667 1331.98 264.5 1323.65 247.5 1307 c 128
 230.5 1290.33 222 1241.33 222 1160 c 2
 222 222 l 2
 222 144 231.334 95.6667 250 77 c 128
 268.667 58.3333 317 49 395 49 c 2
 1012 49 l 2
 1090 49 1138.33 58.3333 1157 77 c 128
 1175.67 95.6667 1185 144 1185 222 c 2
 1185 1160 l 2
 1185 1241.33 1176.5 1290.33 1159.5 1307 c 128
 1142.5 1323.67 1093.33 1332 1012 1332 c 2
 858 1332 l 1
 967 1278 l 2
 1017.67 1253.33 1045 1222 1049 1184 c 1
 358 1184 l 1
 362 1222 389.333 1253.33 440 1278 c 2
 549 1332 l 1
EndSplineSet
EndChar

StartChar: A
Encoding: 65 65 52
Width: 1431
VWidth: 2048
Flags: HW
LayerCount: 2
Fore
SplineSet
222 1145 m 1
 216 1150.33 211.333 1154.33 208 1157 c 0
 184.667 1176.34 173 1200.67 173 1230 c 2
 173 1352 l 2
 173 1393.33 190 1423.33 224 1442 c 0
 316 1492 463.333 1517 666 1517 c 0
 869.333 1517 1017 1492 1109 1442 c 0
 1143 1423.33 1160 1393.33 1160 1352 c 2
 1160 1230 l 2
 1160 1200.67 1148.33 1176.33 1125 1157 c 0
 1121.67 1154.33 1117 1150.33 1111 1145 c 1
 1111 188 l 2
 1111 118.667 1095 73 1063 51 c 0
 975.666 -7.66667 843.333 -37 666 -37 c 0
 489.333 -37 357.333 -7.66667 270 51 c 0
 238 73 222 118.667 222 188 c 2
 222 1145 l 1
667 1258 m 0
 789 1258 893.5 1268 980.5 1288 c 128
 1067.5 1308 1111 1332 1111 1360 c 0
 1111 1386.67 1064 1411.33 970 1434 c 128
 876 1456.67 774.667 1468 666 1468 c 0
 556 1468 454.5 1456.5 361.5 1433.5 c 128
 268.5 1410.5 222 1385.66 222 1359 c 0
 222 1331.67 265.833 1308 353.5 1288 c 128
 441.167 1268 545.667 1258 667 1258 c 0
222 1295 m 1
 222 1265 l 2
 222 1153.67 370 1098 666 1098 c 0
 962.667 1098 1111 1153.67 1111 1265 c 2
 1111 1295 l 1
 1055 1266.33 989.833 1244.83 915.5 1230.5 c 128
 841.166 1216.17 758 1209 666 1209 c 0
 574.666 1209.01 492 1216.18 418 1230.5 c 128
 344 1244.83 278.667 1266.33 222 1295 c 1
272 1119 m 1
 272 191 l 2
 272 131.667 291 92.3333 329 73 c 0
 409.667 32.3333 522 12 666 12 c 0
 810.667 12 923.333 32.3333 1004 73 c 0
 1042 92.3333 1061 131.667 1061 191 c 2
 1061 1119 l 1
 1038.33 1109.67 1013.67 1100.67 987 1092 c 1
 987 158 l 1
 938 145 l 1
 938 1079 l 1
 898 1071.67 848.667 1064.67 790 1058 c 1
 790 123 l 1
 740 123 l 1
 740 1058 l 1
 699.999 1056 675.333 1055 666 1055 c 0
 657.333 1055 632.667 1056 592 1058 c 1
 592 123 l 1
 543 123 l 1
 543 1058 l 1
 484.333 1064.67 435 1071.67 395 1079 c 1
 395 145 l 1
 346 158 l 1
 346 1092 l 1
 319.333 1100.67 294.667 1109.67 272 1119 c 1
EndSplineSet
EndChar

StartChar: O
Encoding: 79 79 53
Width: 2048
VWidth: 2048
Flags: HW
LayerCount: 2
Fore
SplineSet
499 360 m 1
 453 343 l 1
 487 282 l 1
 402.333 313.333 330 357.667 270 415 c 0
 198 484.334 162 558.334 162 637 c 0
 162 691.667 166.334 746.334 175 801 c 0
 187.667 879 206.333 923.334 231 934 c 1
 203.667 984.667 190 1036 190 1088 c 0
 190 1192.67 220.667 1245 282 1245 c 0
 300.667 1245 328.5 1243 365.5 1239 c 128
 402.5 1235 430.333 1233 449 1233 c 0
 519.667 1233 592.334 1253.5 667 1294.5 c 128
 741.667 1335.5 800.001 1356 842 1356 c 0
 958.667 1356 1017 1285 1017 1143 c 0
 1017 1125 1015 1105 1011 1083 c 1
 1041.67 1022.33 1063.67 981.333 1077 960 c 0
 1105 913.333 1134 877.333 1164 852 c 1
 1180.67 879.333 1204.33 904.333 1235 927 c 0
 1269.67 952.333 1300.67 965 1328 965 c 0
 1360 965 1387.33 949.667 1410 919 c 0
 1453.33 859.666 1486.33 818.333 1509 795 c 0
 1549 753.666 1592.33 723.333 1639 704 c 0
 1697 680.665 1754.67 657.332 1812 634 c 1
 1866.67 600.666 1894 548 1894 476 c 0
 1893.99 437.333 1881.66 400.666 1857 366 c 128
 1832.33 331.333 1802.33 305.666 1767 289 c 1
 1779 213 1785 148.667 1785 96 c 0
 1785 56 1769.33 12.6667 1738 -34 c 0
 1731.33 -44 1701.67 -81.3333 1649 -146 c 1
 1649 -78 l 1
 1579 -112 l 1
 1685 -42 1738 30.3333 1738 105 c 0
 1737.99 153.667 1732.65 208 1722 268 c 1
 1694.67 256.667 1674.33 247 1661 239 c 1
 1641 189.667 1607 149.667 1559 119 c 0
 1549.67 113 1501.67 89.6666 1415 49 c 1
 1331 8.33333 1257 -12 1193 -12 c 0
 1102.33 -12 1041.33 26 1010 102 c 0
 990.663 149.333 980.996 226.333 981 333 c 0
 981 529.667 1019.67 645 1097 679 c 1
 1104.34 704.333 1116.67 742.333 1134 793 c 1
 1074 859 1027.33 932 994 1012 c 1
 987 974 l 1
 1003 940 1011 904 1011 866 c 0
 1011 840 995 772.667 963 664 c 0
 908.333 480 826 388 716 388 c 0
 645.333 388 554.167 440.167 442.5 544.5 c 128
 330.833 648.833 275 736 275 806 c 0
 275 820.667 277.333 835.334 282 850 c 1
 255 893 l 1
 226.333 849.666 212 786 212 702 c 0
 212 624 222.667 564.667 244 524 c 0
 262 489.333 294 459.666 340 435 c 1
 393.333 409.667 446.333 384.667 499 360 c 1
1868 477 m 0
 1868 541.667 1841.66 588.667 1789 618 c 1
 1709 649 1709 649 1629 680 c 1
 1579.67 700 1534.33 731.667 1493 775 c 1
 1471 797 1436 840.334 1388 905 c 0
 1371.32 927.668 1350.66 939.002 1326 939 c 0
 1292.67 939 1252 914 1204 864 c 1
 1180.67 838.666 1153.33 771.333 1122 662 c 1
 1069.33 648 1034.66 600.333 1018 519 c 0
 1010 478.333 1006 414 1006 326 c 0
 1006 232 1014.67 163 1032 119 c 0
 1060 49 1114 14 1194 14 c 0
 1264 14 1349.67 39.3333 1451 90 c 0
 1560.33 145.333 1626.33 202.333 1649 261 c 1
 1689 277 1740 303.667 1802 341 c 1
 1846 382.333 1868 427.667 1868 477 c 0
998 1151 m 0
 997.998 1201.67 984.331 1243.67 957 1277 c 0
 927.666 1313 888.333 1331 839 1331 c 0
 807 1331 752.167 1310.33 674.5 1269 c 128
 596.833 1227.67 522 1207 450 1207 c 0
 431.333 1207 403.666 1209 367 1213 c 128
 330.333 1217 302.667 1219 284 1219 c 0
 238 1219 215 1179.33 215 1100 c 0
 215 1053.33 224.334 1010.33 243 971 c 0
 249 958.333 271.667 920.333 311 857 c 1
 303 841 299 824 299 806 c 0
 299 743.333 352.5 662.5 459.5 563.5 c 128
 566.5 464.5 652 415 716 415 c 0
 814.667 415 889 500.333 939 671 c 0
 969.669 776.333 985.002 846 985 880 c 0
 984.996 917.333 977.33 950.667 962 980 c 1
 964.004 990.668 971.337 1019 984 1065 c 0
 993.333 1099.67 998 1128.33 998 1151 c 0
1672 388 m 0
 1671.99 378.667 1665.65 374 1653 374 c 256
 1640.33 374.001 1613.66 391.667 1573 427 c 128
 1532.33 462.334 1511.99 486 1512 498 c 0
 1512 507.335 1518 512.002 1530 512 c 0
 1550.67 512 1579.5 496.333 1616.5 465 c 128
 1653.5 433.667 1672 408 1672 388 c 0
1378 592 m 0
 1378 581.333 1371.33 576 1358 576 c 0
 1352.67 576 1329.33 591.5 1288 622.5 c 128
 1246.67 653.5 1222.33 673.667 1215 683 c 1
 1215 695.669 1226.33 702.003 1249 702 c 256
 1271.67 702 1298.83 689.167 1330.5 663.5 c 128
 1362.17 637.833 1378 614 1378 592 c 0
1379 567 m 1
 1369 496.333 1326 452 1250 434 c 1
 1280 462 1323 506.333 1379 567 c 1
1532 193 m 1
 1515 188 l 1
 1479.67 203.333 1462 243 1462 307 c 1
 1478.67 270.333 1488 250 1490 246 c 0
 1501.33 225.333 1515.33 207.667 1532 193 c 1
1363 303 m 1
 1362 300 l 1
 1355 297 l 1
 1347.67 297 1338 300.833 1326 308.5 c 128
 1314 316.167 1308 323.667 1308 331 c 1
 1309 334 l 1
 1316 337 l 1
 1324 336.998 1333.83 333.165 1345.5 325.5 c 128
 1357.17 317.833 1363 310.333 1363 303 c 1
1267 358 m 1
 1263 354 l 1
 1255 354.667 1243.5 359.667 1228.5 369 c 128
 1213.49 378.333 1205.66 386.333 1205 393 c 1
 1210 397 l 1
 1218 396.998 1229.5 392.165 1244.5 382.5 c 128
 1259.5 372.833 1267 364.666 1267 358 c 1
1195 480 m 1
 1172.33 468 1146 462 1116 462 c 0
 1105.33 462.002 1090.33 464.668 1071 470 c 1
 1068 492 l 1
 1078.67 485.331 1106 481.998 1150 482 c 0
 1164 482 1179 481.333 1195 480 c 1
1428 229 m 1
 1394 154.333 1327.67 117 1229 117 c 0
 1176.33 117 1140.67 139.667 1122 185 c 0
 1110.67 213.667 1105 259.333 1105 322 c 0
 1105 334.667 1108 351.333 1114 372 c 0
 1121.33 396 1125.33 412.333 1126 421 c 1
 1137.34 361.667 1166.17 312.167 1212.5 272.5 c 128
 1258.83 232.833 1312 213 1372 213 c 0
 1397.34 213 1416.01 218.334 1428 229 c 1
877 1067 m 0
 877 1043.67 832.333 1032 743 1032 c 0
 700.333 1032 679 1037 679 1047 c 0
 679 1061.67 697 1073.33 733 1082 c 0
 759 1088 783 1091 805 1091 c 0
 853 1091 877 1083 877 1067 c 0
724 833 m 0
 723.999 819.664 709.332 812.997 680 813 c 0
 668 813 662 815.667 662 821 c 0
 662 834.333 676.667 841 706 841 c 0
 718 840.994 724 838.327 724 833 c 0
570 922 m 0
 570 891.333 561 864.667 543 842 c 1
 544.333 866.667 545 885.667 545 899 c 2
 545 920 l 2
 545 943.333 543.667 966.667 541 990 c 1
 560.333 964.666 570 941.999 570 922 c 0
526 1000 m 0
 525.999 984.667 512.332 974.667 485 970 c 1
 465.667 968 446 965.667 426 963 c 1
 383.333 953 360 948 356 948 c 0
 346 948.007 341 952.341 341 961 c 0
 341 977.668 352 992.334 374 1005 c 0
 393.333 1016.33 412.333 1022 431 1022 c 0
 494.334 1022 526 1014.67 526 1000 c 0
623 817 m 1
 622.333 803.664 603.333 796.997 566 797 c 1
 552 802 l 1
 553.333 815.333 572.333 822 609 822 c 1
 623 817 l 1
874 616 m 1
 760 668.667 683.667 695.001 645 695 c 0
 620.333 695 575 667.667 509 613 c 1
 507 619.669 506 625.336 506 630 c 0
 506.001 664.667 536.334 691.001 597 709 c 0
 639.667 721 685.667 727 735 727 c 0
 811.667 727 858 690 874 616 c 1
EndSplineSet
EndChar

StartChar: z
Encoding: 122 122 54
Width: 1529
VWidth: 2048
Flags: HW
LayerCount: 2
Fore
SplineSet
518 1135 m 1
 518 1480 l 1
 913 1480 l 1
 1012 1382 l 1
 1012 1135 l 1
 1259 1135 l 1
 1357 1036 l 1
 1357 641 l 1
 1012 641 l 1
 1012 0 l 1
 617 0 l 1
 518 99 l 1
 518 740 l 1
 173 740 l 1
 173 1135 l 1
 518 1135 l 1
617 1036 m 1
 272 1036 l 1
 272 839 l 1
 617 839 l 1
 617 197 l 1
 815 197 l 1
 815 839 l 1
 1160 839 l 1
 1160 1036 l 1
 815 1036 l 1
 815 1382 l 1
 617 1382 l 1
 617 1036 l 1
EndSplineSet
EndChar

StartChar: braceleft
Encoding: 123 123 55
Width: 1480
VWidth: 2048
Flags: HW
LayerCount: 2
Fore
SplineSet
815 651 m 1
 909 681.667 971.334 744.334 1002 839 c 1
 914 839 l 1
 832 875 l 1
 819.333 851.665 801.667 833.998 779 822 c 1
 815 740 l 1
 815 651 l 1
328 839 m 1
 173 839 l 1
 173 987 l 1
 328 987 l 1
 372 1168.33 485 1281.33 667 1326 c 1
 667 1480 l 1
 815 1480 l 1
 815 1325 l 1
 996.333 1279.67 1109.33 1167 1154 987 c 1
 1308 987 l 1
 1308 839 l 1
 1154 839 l 1
 1109.33 657.667 996.333 544.667 815 500 c 1
 815 0 l 1
 667 0 l 1
 667 500 l 1
 485 544.667 372 657.667 328 839 c 1
568 839 m 1
 480 839 l 1
 508.667 745 571 682.333 667 651 c 1
 667 740 l 1
 703 822 l 1
 679.667 834 661.667 851.667 649 875 c 1
 568 839 l 1
649 951 m 1
 661.667 973.669 679.667 991.335 703 1004 c 1
 667 1086 l 1
 667 1174 l 1
 571.667 1143.33 509.333 1081 480 987 c 1
 568 987 l 1
 649 951 l 1
779 1004 m 1
 801.668 991.333 819.335 973.667 832 951 c 1
 914 987 l 1
 1002 987 l 1
 978 1059.67 925.667 1118.33 845 1163 c 1
 815 1173 l 1
 815 1086 l 1
 779 1004 l 1
EndSplineSet
EndChar

StartChar: bar
Encoding: 124 124 56
Width: 1627
VWidth: 2048
Flags: HW
LayerCount: 2
Fore
SplineSet
714 1110 m 1
 914 1110 l 1
 814 1283 l 1
 714 1110 l 1
1184 641 m 1
 1085 469 l 1
 1284 469 l 1
 1184 641 l 1
543 469 m 1
 444 641 l 1
 344 469 l 1
 543 469 l 1
173 370 m 1
 387 740 l 1
 173 1110 l 1
 600 1110 l 1
 814 1480 l 1
 1028 1110 l 1
 1455 1110 l 1
 1241 740 l 1
 1455 370 l 1
 1028 370 l 1
 814 0 l 1
 600 370 l 1
 173 370 l 1
1085 1012 m 1
 1184 839 l 1
 1284 1012 l 1
 1085 1012 l 1
914 370 m 1
 714 370 l 1
 814 197 l 1
 914 370 l 1
657 469 m 1
 970 469 l 1
 1127 740 l 1
 971 1012 l 1
 657 1012 l 1
 501 740 l 1
 657 469 l 1
444 839 m 1
 543 1012 l 1
 344 1012 l 1
 444 839 l 1
EndSplineSet
EndChar

StartChar: braceright
Encoding: 125 125 57
Width: 1813
VWidth: 2048
Flags: HW
LayerCount: 2
Fore
SplineSet
1360 150 m 1
 1293.33 106.667 1249.33 80 1228 70 c 0
 1128.67 23.3333 1023.67 0 913 0 c 0
 708.333 0 533.833 72.1667 389.5 216.5 c 128
 245.167 360.833 173 535.333 173 740 c 0
 173 946 245.5 1120.83 390.5 1264.5 c 128
 535.5 1408.17 711.667 1480 919 1480 c 0
 1071.67 1480 1218.67 1430.33 1360 1331 c 1
 1112 1381 l 1
 934 1381 782.333 1318.5 657 1193.5 c 128
 531.667 1068.5 469 917.333 469 740 c 0
 469 564 531.333 413.167 656 287.5 c 128
 780.667 161.833 930.333 99 1105 99 c 1
 1360 150 l 1
1078 825 m 1
 1293 825 l 1
 1360 1029 l 1
 1426 825 l 1
 1641 825 l 1
 1467 699 l 1
 1533 494 l 1
 1360 620 l 1
 1186 494 l 1
 1252 699 l 1
 1078 825 l 1
EndSplineSet
EndChar

StartChar: asciitilde
Encoding: 126 126 58
Width: 1826
VWidth: 2048
Flags: HW
LayerCount: 2
Fore
SplineSet
913 752 m 1
 914 728 l 1
 918.668 632.666 953.834 553.333 1019.5 490 c 128
 1085.17 426.667 1165 395 1259 395 c 0
 1356.33 395 1438.17 429.167 1504.5 497.5 c 128
 1570.84 565.833 1604 650.333 1604 751 c 0
 1604 936.333 1535.83 1096 1399.5 1230 c 128
 1263.17 1364 1101 1431 913 1431 c 0
 720.333 1431 559.833 1366.83 431.5 1238.5 c 128
 303.167 1110.17 233.333 944 222 740 c 1
 236.667 853.333 273.333 939.333 332 998 c 128
 390.667 1056.67 469.333 1086 568 1086 c 0
 662 1086 741.667 1054.16 807 990.5 c 128
 872.333 926.833 907.667 847.333 913 752 c 1
1357 740 m 256
 1357 712.665 1347.33 689.332 1328 670 c 128
 1308.67 650.664 1285.67 640.998 1259 641 c 0
 1231.67 641 1208.33 650.667 1189 670 c 128
 1169.67 689.333 1160 712.667 1160 740 c 256
 1160.01 767.333 1169.68 790.667 1189 810 c 128
 1208.34 829.333 1231.67 839 1259 839 c 256
 1286.34 838.995 1309.5 829.329 1328.5 810 c 128
 1347.5 790.666 1357 767.333 1357 740 c 256
666 740 m 0
 666 767.333 656.5 790.667 637.5 810 c 128
 618.499 829.333 595.333 839 568 839 c 256
 540.666 838.995 517.333 829.329 498 810 c 128
 478.667 790.666 469 767.333 469 740 c 256
 469.001 712.665 478.668 689.332 498 670 c 128
 517.333 650.664 540.667 640.998 568 641 c 0
 594.667 641.002 617.667 650.836 637 670.5 c 128
 656.333 690.168 666 713.335 666 740 c 0
1653 740 m 256
 1653 535.333 1580.83 360.833 1436.5 216.5 c 128
 1292.17 72.1667 1117.67 0 913 0 c 256
 708.333 0 533.833 72.1667 389.5 216.5 c 128
 245.167 360.833 173 535.333 173 740 c 256
 173 944.667 245.167 1119.17 389.5 1263.5 c 128
 533.833 1407.83 708.333 1480 913 1480 c 256
 1117.67 1480 1292.17 1407.83 1436.5 1263.5 c 128
 1580.83 1119.17 1653 944.667 1653 740 c 256
EndSplineSet
EndChar

StartChar: uni007F
Encoding: 127 127 59
Width: 1834
VWidth: 2048
Flags: HW
LayerCount: 2
Fore
SplineSet
173 688 m 1
 229 704 l 1
 257 523.333 316.5 377.333 407.5 266 c 128
 498.5 154.667 603.667 99 723 99 c 0
 785.667 99 838.5 121.5 881.5 166.5 c 128
 924.5 211.5 946 266.667 946 332 c 0
 946 451.333 898 559.667 802 657 c 1
 752 587.666 692.667 537.333 624 506 c 1
 554 672 l 1
 708.667 717.333 786.001 791.333 786 894 c 0
 785.998 933.333 774.332 962.833 751 982.5 c 128
 727.666 1002.17 692.333 1012.01 645 1012 c 0
 575 1012 501.333 991 424 949 c 1
 356 1114 l 1
 420 1144.67 486.333 1160 555 1160 c 0
 645.667 1160 719.167 1130.5 775.5 1071.5 c 128
 831.833 1012.5 860 935.667 860 841 c 0
 860 800.333 852 764.333 836 733 c 1
 867 704 l 1
 955.667 788.667 1040.33 831 1121 831 c 0
 1127.67 830.975 1138 830.308 1152 829 c 1
 1183.33 991.667 1266 1073 1400 1073 c 0
 1487.33 1073 1552.83 1037.33 1596.5 966 c 128
 1640.17 894.667 1662 787.667 1662 645 c 0
 1662 500.333 1634.66 385.5 1580 300.5 c 128
 1525.33 215.5 1451.67 173 1359 173 c 0
 1294.33 173 1248.33 193.667 1221 235 c 128
 1193.67 276.333 1180 345.667 1180 443 c 2
 1180 517 l 2
 1180 608.333 1155.66 654 1107 654 c 0
 1065.67 654 1014.33 632.667 953 590 c 1
 1039 474.667 1082 363.667 1082 257 c 0
 1082 169 1053.16 97.8333 995.5 43.5 c 128
 937.833 -10.8333 862 -38 768 -38 c 0
 615.333 -38 482.5 31 369.5 169 c 128
 256.5 307 191 480 173 688 c 1
1202 811 m 1
 1237.34 793 1255.01 749.667 1255 681 c 2
 1254 564 l 1
 1254 501 l 2
 1254 381 1291.67 321 1367 321 c 0
 1430.33 321 1483 350.5 1525 409.5 c 128
 1567 468.5 1588 542.667 1588 632 c 0
 1588 718.667 1568.83 789.167 1530.5 843.5 c 128
 1492.17 897.833 1442.67 925 1382 925 c 0
 1298.67 925 1238.67 887 1202 811 c 1
669 1318 m 1
 719 1355 l 1
 781 1274.33 855.334 1234 942 1234 c 0
 1023.33 1234 1093.67 1274.33 1153 1355 c 1
 1291 1240 l 1
 1201.67 1145.33 1111.33 1098 1020 1098 c 0
 881.333 1098 764.333 1171.33 669 1318 c 1
963 1517 m 1
 1068 1411 l 1
 963 1309 l 1
 859 1418 l 1
 963 1517 l 1
EndSplineSet
EndChar

StartChar: uni0081
Encoding: 129 129 60
Width: 1727
VWidth: 2048
Flags: HW
LayerCount: 2
Fore
SplineSet
863 -37 m 256
 648.333 -37 465.167 38.8333 313.5 190.5 c 128
 161.833 342.167 86 525.333 86 740 c 256
 86 954.667 161.833 1137.83 313.5 1289.5 c 128
 465.167 1441.17 648.333 1517 863 1517 c 256
 1077.67 1517 1260.83 1441.17 1412.5 1289.5 c 128
 1564.17 1137.83 1640 954.667 1640 740 c 256
 1640 525.333 1564.17 342.167 1412.5 190.5 c 128
 1260.83 38.8333 1077.67 -37 863 -37 c 256
863 62 m 256
 1050.33 62 1210.17 128.167 1342.5 260.5 c 128
 1474.84 392.833 1541 552.667 1541 740 c 256
 1541 927.333 1474.83 1087.33 1342.5 1220 c 128
 1210.17 1352.67 1050.33 1419 863 1419 c 256
 675.667 1419 515.833 1352.66 383.5 1220 c 128
 251.167 1087.33 185 927.333 185 740 c 256
 185 552.667 251.167 392.833 383.5 260.5 c 128
 515.833 128.167 675.667 62 863 62 c 256
407 697 m 1
 468 697 l 1
 516.667 483 648.333 376 863 376 c 256
 1077.67 376 1209.33 483 1258 697 c 1
 1320 697 l 1
 1304.67 558.333 1256.5 449.667 1175.5 371 c 128
 1094.5 292.333 990.333 253 863 253 c 256
 735.667 253 631.667 292.333 551 371 c 128
 470.333 449.667 422.333 558.333 407 697 c 1
616 864 m 256
 582 864 553 876 529 900 c 128
 505 924 493 953 493 987 c 256
 493 1021 505 1050 529 1074 c 128
 553 1098 582 1110 616 1110 c 0
 650.667 1110 680.001 1098 704 1074 c 128
 728 1050 740 1021 740 987 c 256
 739.999 953 727.832 924 703.5 900 c 128
 679.166 876 649.999 864 616 864 c 256
1110 864 m 256
 1076 864 1046.83 876 1022.5 900 c 128
 998.165 924 985.998 953 986 987 c 256
 986 1021 998.167 1050 1022.5 1074 c 128
 1046.84 1098 1076 1110 1110 1110 c 256
 1144 1110 1173 1098 1197 1074 c 128
 1221 1050 1233 1021 1233 987 c 256
 1233 953 1221 924 1197 900 c 128
 1173 876 1144 864 1110 864 c 256
EndSplineSet
EndChar

StartChar: uni0082
Encoding: 130 130 61
Width: 1727
VWidth: 2048
Flags: HW
LayerCount: 2
Fore
SplineSet
863 -37 m 256
 648.333 -37 465.167 38.8333 313.5 190.5 c 128
 161.833 342.167 86 525.333 86 740 c 256
 86 954.667 161.833 1137.83 313.5 1289.5 c 128
 465.167 1441.17 648.333 1517 863 1517 c 256
 1077.67 1517 1260.83 1441.17 1412.5 1289.5 c 128
 1564.17 1137.83 1640 954.667 1640 740 c 256
 1640 525.333 1564.17 342.167 1412.5 190.5 c 128
 1260.83 38.8333 1077.67 -37 863 -37 c 256
863 62 m 256
 1050.33 62 1210.17 128.167 1342.5 260.5 c 128
 1474.84 392.833 1541 552.667 1541 740 c 256
 1541 927.333 1474.83 1087.33 1342.5 1220 c 128
 1210.17 1352.67 1050.33 1419 863 1419 c 256
 675.667 1419 515.833 1352.66 383.5 1220 c 128
 251.167 1087.33 185 927.333 185 740 c 256
 185 552.667 251.167 392.833 383.5 260.5 c 128
 515.833 128.167 675.667 62 863 62 c 256
419 475 m 1
 419 574 l 1
 1307 574 l 1
 1307 475 l 1
 419 475 l 1
616 864 m 256
 582 864 553 876 529 900 c 128
 505 924 493 953 493 987 c 256
 493 1021 505 1050 529 1074 c 128
 553 1098 582 1110 616 1110 c 0
 650.667 1110 680.001 1098 704 1074 c 128
 728 1050 740 1021 740 987 c 256
 739.999 953 727.832 924 703.5 900 c 128
 679.166 876 649.999 864 616 864 c 256
1110 864 m 256
 1076 864 1046.83 876 1022.5 900 c 128
 998.165 924 985.998 953 986 987 c 256
 986 1021 998.167 1050 1022.5 1074 c 128
 1046.84 1098 1076 1110 1110 1110 c 256
 1144 1110 1173 1098 1197 1074 c 128
 1221 1050 1233 1021 1233 987 c 256
 1233 953 1221 924 1197 900 c 128
 1173 876 1144 864 1110 864 c 256
EndSplineSet
EndChar

StartChar: uni0083
Encoding: 131 131 62
Width: 1727
VWidth: 2048
Flags: HW
LayerCount: 2
Fore
SplineSet
863 -37 m 256
 648.333 -37 465.167 38.8333 313.5 190.5 c 128
 161.833 342.167 86 525.333 86 740 c 256
 86 954.667 161.833 1137.83 313.5 1289.5 c 128
 465.167 1441.17 648.333 1517 863 1517 c 256
 1077.67 1517 1260.83 1441.17 1412.5 1289.5 c 128
 1564.17 1137.83 1640 954.667 1640 740 c 256
 1640 525.333 1564.17 342.167 1412.5 190.5 c 128
 1260.83 38.8333 1077.67 -37 863 -37 c 256
863 62 m 256
 1050.33 62 1210.17 128.167 1342.5 260.5 c 128
 1474.84 392.833 1541 552.667 1541 740 c 256
 1541 927.333 1474.83 1087.33 1342.5 1220 c 128
 1210.17 1352.67 1050.33 1419 863 1419 c 256
 675.667 1419 515.833 1352.66 383.5 1220 c 128
 251.167 1087.33 185 927.333 185 740 c 256
 185 552.667 251.167 392.833 383.5 260.5 c 128
 515.833 128.167 675.667 62 863 62 c 256
468 339 m 1
 407 339 l 1
 421.667 477.667 469.5 586.333 550.5 665 c 128
 631.5 743.668 735.667 783.001 863 783 c 256
 990.333 783 1094.5 743.667 1175.5 665 c 128
 1256.5 586.333 1304.67 477.667 1320 339 c 1
 1258 339 l 1
 1210 553 1078.33 660 863 660 c 0
 648.333 660 516.667 553 468 339 c 1
616 864 m 256
 582 864 553 876 529 900 c 128
 505 924 493 953 493 987 c 256
 493 1021 505 1050 529 1074 c 128
 553 1098 582 1110 616 1110 c 0
 650.667 1110 680.001 1098 704 1074 c 128
 728 1050 740 1021 740 987 c 256
 739.999 953 727.832 924 703.5 900 c 128
 679.166 876 649.999 864 616 864 c 256
1110 864 m 256
 1076 864 1046.83 876 1022.5 900 c 128
 998.165 924 985.998 953 986 987 c 256
 986 1021 998.167 1050 1022.5 1074 c 128
 1046.84 1098 1076 1110 1110 1110 c 256
 1144 1110 1173 1098 1197 1074 c 128
 1221 1050 1233 1021 1233 987 c 256
 1233 953 1221 924 1197 900 c 128
 1173 876 1144 864 1110 864 c 256
EndSplineSet
EndChar

StartChar: uni0084
Encoding: 132 132 63
Width: 2275
VWidth: 2048
Flags: HW
LayerCount: 2
Fore
SplineSet
876 1128 m 1
 876 992 l 1
 1114.67 894.667 1234 728.333 1234 493 c 0
 1234 346.333 1182.17 221.333 1078.5 118 c 128
 974.833 14.6667 849.667 -37 703 -37 c 0
 557 -37 432.167 14.6667 328.5 118 c 128
 224.833 221.333 173 345.667 173 491 c 0
 173 720.333 292.333 887.333 531 992 c 1
 531 1128 l 1
 564.333 1145.34 605.667 1158 655 1166 c 1
 655 1187 l 2
 655.001 1255.67 677.334 1313.5 722 1360.5 c 128
 766.667 1407.5 821.334 1431 886 1431 c 0
 973.334 1431 1078.67 1378 1202 1272 c 1
 1255 1226 l 1
 1383 1116 1487.33 1061 1568 1061 c 0
 1595.33 1061 1629.33 1071.67 1670 1093 c 0
 1676 1096.37 1684 1098.03 1694 1098 c 0
 1724.67 1098 1740 1085.66 1740 1061 c 0
 1740 1035 1721.83 1012 1685.5 992 c 128
 1649.17 972 1607.67 962 1561 962 c 0
 1461.67 962 1338.33 1024 1191 1148 c 2
 1134 1196 l 2
 1026 1286.67 942.667 1332 884 1332 c 0
 797.333 1332 754 1276.67 754 1166 c 1
 797.333 1156.67 838 1144 876 1128 c 1
1350 1484 m 1
 1390 1517 l 1
 1636 1193 l 1
 1350 1484 l 1
1696 1517 m 1
 1747 1517 l 1
 1723 1224 l 1
 1696 1517 l 1
2051 1517 m 1
 2092 1486 l 1
 1812 1192 l 1
 2051 1517 l 1
2143 1186 m 1
 2151 1139 l 1
 1857 1112 l 1
 2143 1186 l 1
2201 838 m 1
 2177 797 l 1
 1840 1022 l 1
 2201 838 l 1
1891 696 m 1
 1843 679 l 1
 1769 963 l 1
 1891 696 l 1
1553 576 m 1
 1506 593 l 1
 1673 965 l 1
 1553 576 l 1
EndSplineSet
EndChar

StartChar: uni0085
Encoding: 133 133 64
Width: 1352
VWidth: 2048
Flags: HW
LayerCount: 2
Fore
SplineSet
800 805 m 1
 780 754 l 1
 754.666 745.333 720.333 741 677 741 c 0
 655.666 741 636.333 742.167 619 744.5 c 128
 601.667 746.833 586.667 750 574 754 c 1
 554 805 l 1
 414 872 l 1
 401 956 l 2
 398.999 972.001 384.666 1003.33 358 1050 c 1
 337.333 1084.67 326.999 1140.33 327 1217 c 0
 327 1306.34 359.333 1378.67 424 1434 c 128
 488.667 1489.34 573 1517 677 1517 c 256
 781 1517 865.333 1489.33 930 1434 c 128
 994.668 1378.67 1027 1306.33 1027 1217 c 0
 1027 1140.33 1005.67 1065.33 963 992 c 0
 959 984 955.667 972 953 956 c 2
 940 872 l 1
 800 805 l 1
866 782 m 1
 841 683 l 1
 780 630 l 1
 769.333 609.333 755.167 593.833 737.5 583.5 c 128
 719.833 573.162 699 567.996 675 568 c 0
 627 568 592 588.667 570 630 c 1
 509 683 l 1
 484 782 l 1
 520 791 l 1
 524 780.997 527 773.33 529 768 c 0
 544.333 732.666 561.167 709.333 579.5 698 c 128
 597.833 686.664 628.333 680.997 671 681 c 0
 719 681.003 752.167 686.336 770.5 697 c 128
 788.833 707.667 805.667 731.334 821 768 c 0
 823 773.333 826 781 830 791 c 1
 866 782 l 1
681 369 m 1
 724.333 393 800.333 428 909 474 c 0
 914.333 476.667 928.333 482.667 951 492 c 1
 989.667 531.333 1021.67 560.833 1047 580.5 c 128
 1072.34 600.17 1090.67 610.003 1102 610 c 0
 1116 610 1126.33 605.667 1133 597 c 128
 1139.67 588.333 1143 575 1143 557 c 0
 1142.97 541.666 1140.63 520 1136 492 c 1
 1164.67 456 1179 429.333 1179 412 c 0
 1179 397.333 1175 386.166 1167 378.5 c 128
 1159 370.831 1147 366.998 1131 367 c 0
 1123 367.002 1110.83 371.169 1094.5 379.5 c 128
 1078.17 387.834 1057.33 400 1032 416 c 1
 970.667 404.667 882.667 370.333 768 313 c 1
 782.67 304.333 793.336 297.999 800 294 c 0
 840 271.333 889.334 241 948 203 c 0
 955.333 198.333 972 188.333 998 173 c 1
 1119.33 159 1180 128.333 1180 81 c 0
 1180 50.3333 1147.33 29.6667 1082 19 c 1
 1051.33 -18.3333 1026 -37 1006 -37 c 0
 982 -37 958.667 -5.66667 936 57 c 0
 933.993 63.6667 930.326 73.3333 925 86 c 1
 831.667 162.667 747.667 220.667 673 260 c 1
 581.667 208.667 497 147.333 419 76 c 1
 408.333 0.666667 385.666 -37 351 -37 c 0
 329 -37 303.667 -15.6667 275 27 c 1
 207 27 173 45.6667 173 83 c 0
 173 110.333 185.667 130.167 211 142.5 c 128
 236.333 154.833 289.667 167 371 179 c 1
 431.667 223.667 503.667 268.333 587 313 c 1
 475 369 383.667 403.333 313 416 c 1
 296.333 401.333 281 390.333 267 383 c 128
 253 375.667 240 372 228 372 c 0
 210.667 372.001 197.5 375.668 188.5 383 c 128
 179.5 390.334 175 401 175 415 c 0
 175 427.667 189.667 453.333 219 492 c 1
 212.333 519.333 209 540 209 554 c 0
 209 574.002 213 588.835 221 598.5 c 128
 229 608.171 240.667 613.005 256 613 c 256
 271.333 613 291.333 603 316 583 c 128
 340.667 563 370.333 532.667 405 492 c 1
 481.667 464.667 573.667 423.667 681 369 c 1
448 1054 m 0
 448 990 475.667 958 531 958 c 0
 587 958.001 615 992.334 615 1061 c 0
 615 1117.67 588 1146 534 1146 c 0
 505.333 1146 483.833 1138.33 469.5 1123 c 128
 455.167 1107.67 448 1084.67 448 1054 c 0
744 1054 m 0
 744 990 772 958 828 958 c 256
 884 958.001 912 992.334 912 1061 c 0
 912 1089.67 905.167 1111 891.5 1125 c 128
 877.833 1139 857.333 1146 830 1146 c 0
 772.666 1146 743.999 1115.33 744 1054 c 0
678 973 m 1
 666 952.998 653.667 935.332 641 920 c 1
 625 902 617 888 617 878 c 0
 617 867.333 620.167 859.333 626.5 854 c 128
 632.833 848.66 642 845.994 654 846 c 0
 661.333 846 669.333 848.667 678 854 c 1
 686.667 848.66 694.667 845.994 702 846 c 0
 726.668 846 739.001 857 739 879 c 0
 739 888.333 731 902 715 920 c 0
 701.665 936 689.332 953.667 678 973 c 1
EndSplineSet
EndChar

StartChar: uni0086
Encoding: 134 134 65
Width: 1819
VWidth: 2048
Flags: HW
LayerCount: 2
Fore
SplineSet
272 740 m 1
 173 962 l 1
 284 962 l 1
 389 802 l 1
 963 820 l 1
 691 1480 l 1
 839 1480 l 1
 1259 833 l 1
 1356 834 l 2
 1413.33 834 1465.33 826.667 1512 812 c 2
 1576 791 l 2
 1623.34 774.998 1647 758.331 1647 741 c 0
 1647 722.333 1623.33 705 1576 689 c 2
 1512 668 l 2
 1465.33 653.333 1412.33 646 1353 646 c 1
 1259 648 l 1
 839 0 l 1
 691 0 l 1
 963 660 l 1
 389 678 l 1
 284 518 l 1
 173 518 l 1
 272 740 l 1
EndSplineSet
EndChar

StartChar: uni0089
Encoding: 137 137 66
Width: 1924
VWidth: 2048
Flags: HW
LayerCount: 2
Fore
SplineSet
1629 1480 m 1
 1629 518 l 1
 296 518 l 1
 296 1480 l 1
 1629 1480 l 1
1629 469 m 1
 1700 321 l 2
 1734.67 249.667 1752 180.667 1752 114 c 2
 1752 0 l 1
 173 0 l 1
 173 114 l 2
 173 180 190.333 249 225 321 c 2
 296 469 l 1
 1629 469 l 1
1579 1431 m 1
 346 1431 l 1
 346 568 l 1
 1579 568 l 1
 1579 1431 l 1
1596 419 m 1
 325 419 l 1
 262 284 l 2
 235.333 226.667 222 180.333 222 145 c 2
 222 49 l 1
 1703 49 l 1
 1703 86 l 2
 1702.99 152.667 1687.66 219.333 1657 286 c 2
 1596 419 l 1
444 1229 m 2
 444 769 l 2
 444 722.999 449.833 694.332 461.5 683 c 128
 473.167 671.664 502.333 665.997 549 666 c 2
 1373 666 l 2
 1421 666 1451 671.5 1463 682.5 c 128
 1475 693.501 1481 721.334 1481 766 c 2
 1481 1231 l 2
 1481 1275.67 1474.83 1303.67 1462.5 1315 c 128
 1450.17 1326.34 1420.33 1332.01 1373 1332 c 2
 549 1332 l 2
 502.333 1332 473.166 1326.5 461.5 1315.5 c 128
 449.832 1304.5 443.999 1275.66 444 1229 c 2
401 358 m 1
 524 358 l 1
 524 309 l 1
 649 309 l 1
 649 358 l 1
 770 358 l 1
 770 309 l 1
 896 309 l 1
 896 358 l 1
 1017 358 l 1
 1017 309 l 1
 1142 309 l 1
 1142 358 l 1
 1264 358 l 1
 1264 309 l 1
 1389 309 l 1
 1389 358 l 1
 1512 358 l 1
 1512 309 l 1
 1390 309 l 1
 1390 258 l 1
 1512 258 l 1
 1512 210 l 1
 1389 210 l 1
 1389 258 l 1
 1264 258 l 1
 1264 210 l 1
 1142 210 l 1
 1142 258 l 1
 1017 258 l 1
 1017 210 l 1
 896 210 l 1
 896 258 l 1
 770 258 l 1
 770 210 l 1
 649 210 l 1
 649 258 l 1
 524 258 l 1
 524 210 l 1
 401 210 l 1
 401 258 l 1
 523 258 l 1
 523 309 l 1
 401 309 l 1
 401 358 l 1
649 260 m 1
 770 260 l 1
 770 307 l 1
 649 307 l 1
 649 260 l 1
896 260 m 1
 1017 260 l 1
 1017 307 l 1
 896 307 l 1
 896 260 l 1
1142 260 m 1
 1264 260 l 1
 1264 307 l 1
 1142 307 l 1
 1142 260 l 1
395 768 m 2
 395 1230 l 2
 395 1298 403.333 1340.33 420 1357 c 128
 436.667 1373.67 479.667 1382 549 1382 c 2
 1376 1382 l 2
 1445.33 1381.98 1488.33 1373.65 1505 1357 c 128
 1521.67 1340.33 1530 1298 1530 1230 c 2
 1530 768 l 2
 1530 700.667 1521.5 658.667 1504.5 642 c 128
 1487.5 625.333 1444.67 617 1376 617 c 2
 549 617 l 2
 480.333 617.004 437.5 625.337 420.5 642 c 128
 403.5 658.667 395 700.667 395 768 c 2
EndSplineSet
EndChar

StartChar: uni008A
Encoding: 138 138 67
Width: 1826
VWidth: 2048
Flags: HW
LayerCount: 2
Fore
SplineSet
173 197 m 1
 173 1382 l 2
 173 1409.34 182.667 1432.5 202 1451.5 c 128
 221.333 1470.5 244.667 1480 272 1480 c 2
 1555 1480 l 2
 1582.34 1480 1605.5 1470.5 1624.5 1451.5 c 128
 1643.5 1432.5 1653 1409.33 1653 1382 c 2
 1653 99 l 2
 1653 71.6667 1643.5 48.3333 1624.5 29 c 128
 1605.5 9.66667 1582.33 0 1555 0 c 2
 370 0 l 1
 173 197 l 1
864 493 m 1
 617 493 l 1
 617 49 l 1
 864 49 l 1
 864 493 l 1
1259 49 m 1
 1555 49 l 2
 1571.67 49 1584 53.1667 1592 61.5 c 128
 1600 69.8334 1604 82 1604 98 c 2
 1604 1382 l 2
 1603.99 1414.67 1587.66 1431 1555 1431 c 2
 1407 1431 l 1
 1407 839 l 2
 1407 811.665 1397.33 788.332 1378 769 c 128
 1358.67 749.664 1335.33 739.997 1308 740 c 2
 518 740 l 2
 490.667 740 467.5 749.667 448.5 769 c 128
 429.5 788.333 420 811.667 420 839 c 2
 420 1431 l 1
 272 1431 l 2
 238.667 1430.99 222 1414.66 222 1382 c 2
 222 217 l 1
 390 49 l 1
 568 49 l 1
 568 493 l 2
 568.002 526.333 584.335 543 617 543 c 2
 1209 543 l 2
 1242.34 542.999 1259.01 526.332 1259 493 c 2
 1259 49 l 1
1357 1431 m 1
 469 1431 l 1
 469 839 l 2
 469.003 822.998 473.169 810.832 481.5 802.5 c 128
 489.834 794.158 502 789.991 518 790 c 2
 1308 789 l 2
 1340.67 789 1357 805.667 1357 839 c 2
 1357 1431 l 1
EndSplineSet
EndChar

StartChar: uni008B
Encoding: 139 139 68
Width: 1826
VWidth: 2048
Flags: HW
LayerCount: 2
Fore
SplineSet
1259 1382 m 1
 272 1382 l 1
 272 1036 l 1
 1259 1036 l 1
 1259 1382 l 1
1653 1480 m 1
 1653 1184 l 1
 1555 1184 l 1
 1555 1036 l 1
 1653 1036 l 1
 1653 0 l 1
 173 0 l 1
 173 1480 l 1
 1653 1480 l 1
1113 740 m 256
 1113 793.333 1093.16 839.667 1053.5 879 c 128
 1013.83 918.333 967 938 913 938 c 256
 859 938 812.667 918.667 774 880 c 128
 735.333 841.333 716 794.667 716 740 c 0
 716.001 686 735.335 639.667 774 601 c 128
 812.667 562.333 859 543 913 543 c 256
 967 543 1013.83 562.5 1053.5 601.5 c 128
 1093.17 640.5 1113 686.667 1113 740 c 256
987 173 m 1
 987 370 l 2
 986.999 419.334 962.332 444 913 444 c 256
 863.666 444 838.999 419.333 839 370 c 2
 839 173 l 2
 839 123.667 863.667 99 913 99 c 0
 958.333 99 983 123.667 987 173 c 1
EndSplineSet
EndChar

StartChar: uni008C
Encoding: 140 140 69
Width: 2119
VWidth: 2048
Flags: HW
LayerCount: 2
Fore
SplineSet
168 1415 m 1
 168 1356 l 1
 100 1328 l 1
 100 1386 l 1
 168 1415 l 1
161 1224 m 1
 161 1171 l 1
 106 1146 l 1
 106 1198 l 1
 161 1224 l 1
161 1032 m 1
 161 980 l 1
 106 955 l 1
 106 1007 l 1
 161 1032 l 1
168 843 m 1
 168 784 l 1
 100 756 l 1
 100 813 l 1
 168 843 l 1
161 644 m 1
 161 593 l 1
 106 568 l 1
 106 620 l 1
 161 644 l 1
161 450 m 1
 161 398 l 1
 106 373 l 1
 106 424 l 1
 161 450 l 1
168 263 m 1
 168 203 l 1
 100 175 l 1
 100 232 l 1
 168 263 l 1
340 1382 m 1
 340 1313 l 1
 248 1278 l 1
 248 1346 l 1
 340 1382 l 1
335 1182 m 1
 335 1119 l 1
 261 1090 l 1
 261 1153 l 1
 335 1182 l 1
335 989 m 1
 335 927 l 1
 261 898 l 1
 261 962 l 1
 335 989 l 1
340 803 m 1
 340 735 l 1
 248 699 l 1
 248 767 l 1
 340 803 l 1
335 603 m 1
 335 541 l 1
 261 511 l 1
 261 575 l 1
 335 603 l 1
335 408 m 1
 335 346 l 1
 261 316 l 1
 261 379 l 1
 335 408 l 1
340 221 m 1
 340 153 l 1
 248 115 l 1
 248 183 l 1
 340 221 l 1
512 1339 m 1
 512 1257 l 1
 393 1210 l 1
 393 1291 l 1
 512 1339 l 1
506 1138 m 1
 506 1065 l 1
 406 1026 l 1
 406 1097 l 1
 506 1138 l 1
506 945 m 1
 506 873 l 1
 406 833 l 1
 406 905 l 1
 506 945 l 1
512 760 m 1
 512 678 l 1
 393 631 l 1
 393 712 l 1
 512 760 l 1
506 559 m 1
 506 487 l 1
 406 446 l 1
 406 518 l 1
 506 559 l 1
506 372 m 1
 506 298 l 1
 406 258 l 1
 406 330 l 1
 506 372 l 1
512 185 m 1
 512 103 l 1
 393 55 l 1
 393 137 l 1
 512 185 l 1
700 1344 m 1
 700 1236 l 1
 551 1176 l 1
 551 1283 l 1
 700 1344 l 1
692 1143 m 1
 692 1044 l 1
 567 993 l 1
 567 1092 l 1
 692 1143 l 1
692 950 m 1
 692 852 l 1
 567 801 l 1
 567 900 l 1
 692 950 l 1
700 764 m 1
 700 656 l 1
 551 597 l 1
 551 705 l 1
 700 764 l 1
692 563 m 1
 692 464 l 1
 567 414 l 1
 567 513 l 1
 692 563 l 1
692 376 m 1
 692 277 l 1
 567 227 l 1
 567 325 l 1
 692 376 l 1
700 190 m 1
 700 82 l 1
 551 22 l 1
 551 129 l 1
 700 190 l 1
897 1362 m 1
 897 1221 l 1
 731 1153 l 1
 731 1294 l 1
 897 1362 l 1
889 1150 m 1
 889 1032 l 1
 747 975 l 1
 747 1094 l 1
 889 1150 l 1
889 966 m 1
 889 847 l 1
 747 791 l 1
 747 909 l 1
 889 966 l 1
897 783 m 1
 897 642 l 1
 731 575 l 1
 731 716 l 1
 897 783 l 1
889 572 m 1
 889 452 l 1
 747 397 l 1
 747 515 l 1
 889 572 l 1
889 384 m 1
 889 265 l 1
 747 208 l 1
 747 327 l 1
 889 384 l 1
897 208 m 1
 897 67 l 1
 731 0 l 1
 731 141 l 1
 897 208 l 1
1098 1433 m 1
 1098 1240 l 1
 921 1166 l 1
 921 1346 l 1
 982.333 1381.33 1041.33 1410.33 1098 1433 c 1
1098 1220 m 1
 1098 1053 l 1
 921 978 l 1
 921 1146 l 1
 1098 1220 l 1
1098 1032 m 1
 1098 863 l 1
 921 788 l 1
 921 957 l 1
 1098 1032 l 1
1098 842 m 1
 1098 675 l 1
 921 600 l 1
 921 768 l 1
 1098 842 l 1
1098 654 m 1
 1098 482 l 1
 921 406 l 1
 921 579 l 1
 1098 654 l 1
1098 461 m 1
 1098 293 l 1
 921 216 l 1
 921 386 l 1
 1098 461 l 1
1098 272 m 1
 1098 92 l 1
 1028.67 65.3333 969.667 39.6667 921 15 c 1
 921 196 l 1
 1098 272 l 1
2018 1426 m 1
 2018 75 l 1
 1904 149.667 1761.67 187 1591 187 c 0
 1449.67 187 1291.67 157.667 1117 99 c 1
 1117 279 l 1
 1209.67 315.667 1311.67 342 1423 358 c 1
 1423 798 l 1
 1329 785.999 1227 753.332 1117 700 c 1
 1117 829 l 1
 1212.33 873 1314.33 903 1423 919 c 1
 1423 1346 l 1
 1325 1327.33 1223 1295.66 1117 1251 c 1
 1117 1441 l 1
 1272.33 1504.34 1424.67 1536 1574 1536 c 0
 1734.67 1536 1882.67 1499.33 2018 1426 c 1
1841 1305 m 1
 1767 1342.34 1678.33 1361.01 1575 1361 c 0
 1563 1361 1551 1360.33 1539 1359 c 1
 1539 927 l 1
 1579 928 l 1
 1667.67 928 1755 914 1841 886 c 1
 1841 1305 l 1
1841 758 m 1
 1761.67 792.669 1673.67 810.002 1577 810 c 0
 1565 809.975 1552.33 809.309 1539 808 c 1
 1539 368 l 1
 1579 368 l 2
 1675.67 368 1763 356 1841 332 c 1
 1841 758 l 1
1957 20 m 1
 1957 49 l 1
 1945 49 l 1
 1945 54 l 1
 1974 54 l 1
 1974 49 l 1
 1962 49 l 1
 1962 20 l 1
 1957 20 l 1
1978 20 m 1
 1978 54 l 1
 1986 54 l 1
 1998 28 l 1
 2010 54 l 1
 2018 54 l 1
 2018 20 l 1
 2013 20 l 1
 2013 48 l 1
 2001 22 l 1
 1995 22 l 1
 1983 48 l 1
 1983 20 l 1
 1978 20 l 1
EndSplineSet
EndChar

StartChar: uni008D
Encoding: 141 141 70
Width: 938
VWidth: 2048
Flags: HW
LayerCount: 2
Fore
SplineSet
493 932 m 1
 493 869 l 1
 599 859 666.667 841.5 696 816.5 c 128
 725.333 791.5 740 739.667 740 661 c 2
 740 143 l 2
 739.999 79.6667 718.833 33.8333 676.5 5.5 c 128
 634.166 -22.8333 566 -37 472 -37 c 0
 384 -37 310.333 -21 251 11 c 0
 225.667 25 210.333 38.5 205 51.5 c 128
 199.666 64.5 197 94.3333 197 141 c 2
 197 660 l 2
 197 722 199.834 761 205.5 777 c 128
 211.167 793.002 227.667 808.336 255 823 c 0
 296.333 845.668 359.333 861.002 444 869 c 1
 444 932 l 1
 388 935.333 343.167 952.667 309.5 984 c 128
 275.833 1015.33 259 1054.67 259 1102 c 0
 259 1153.33 280.667 1210 324 1272 c 1
 349 1309 l 1
 393.667 1373 416 1428 416 1474 c 0
 415.997 1482.67 414.663 1495 412 1511 c 1
 581.333 1415 666 1293.33 666 1146 c 0
 666 1090.67 651.667 1045.17 623 1009.5 c 128
 594.333 973.833 551 948 493 932 c 1
458 1428 m 1
 450.667 1392 426 1339.67 384 1271 c 1
 362 1234 l 2
 326 1174 308 1128.67 308 1098 c 0
 308 1064 322.667 1034.83 352 1010.5 c 128
 381.333 986.165 416.333 973.998 457 974 c 0
 501 974 538.5 989.5 569.5 1020.5 c 128
 600.5 1051.5 616 1089 616 1133 c 0
 616 1232.33 563.333 1330.67 458 1428 c 1
444 765 m 1
 444 816 l 1
 320.667 806.664 259 786.998 259 757 c 0
 259 743.664 280 731.331 322 720 c 128
 364 708.664 410 702.997 460 703 c 0
 532 703 586 707.667 622 717 c 128
 658 726.333 676 740 676 758 c 0
 676 786.669 615 806.002 493 816 c 1
 493 765 l 1
 444 765 l 1
690 704 m 1
 664 687.333 632.5 674.833 595.5 666.5 c 128
 558.5 658.159 516 653.992 468 654 c 0
 420.667 654 378.5 658.167 341.5 666.5 c 128
 304.5 674.833 272.667 687.333 246 704 c 1
 246 143 l 2
 246 99.6667 264.5 67 301.5 45 c 128
 338.5 23 394 12 468 12 c 256
 542 12 597.5 23 634.5 45 c 128
 671.5 67 690 99.6667 690 143 c 2
 690 704 l 1
EndSplineSet
EndChar

StartChar: uni008E
Encoding: 142 142 71
Width: 1941
VWidth: 2048
Flags: HW
LayerCount: 2
Fore
SplineSet
1429 1213 m 1
 1169 1213 l 2
 1121 1212.99 1090.33 1206.66 1077 1194 c 128
 1063.67 1181.33 1057 1152.67 1057 1108 c 2
 1057 950 l 1
 1429 950 l 1
 1429 1213 l 1
1479 1213 m 1
 1479 950 l 1
 1720 950 l 1
 1720 1108 l 2
 1719.99 1154.67 1713.65 1183.83 1701 1195.5 c 128
 1688.33 1207.17 1657.33 1213 1608 1213 c 2
 1479 1213 l 1
1057 901 m 1
 1057 344 l 2
 1057 252.667 1089.33 174.5 1154 109.5 c 128
 1218.67 44.5 1296.67 12 1388 12 c 0
 1480 12 1558.33 44.3333 1623 109 c 128
 1687.67 173.667 1720 252 1720 344 c 2
 1720 901 l 1
 1057 901 l 1
1405 1263 m 1
 1405 1353.67 1387.83 1418.67 1353.5 1458 c 128
 1319.17 1497.34 1262.67 1517.01 1184 1517 c 0
 1027.33 1517 907.666 1404.67 825 1180 c 1
 809 1135 l 1
 711.667 871.666 569.667 740 383 740 c 0
 308.333 740.001 238.167 768.834 172.5 826.5 c 128
 106.833 884.167 74 945.667 74 1011 c 0
 74 1044.34 89.6667 1061.01 121 1061 c 0
 141.667 1061 162.667 1034.66 184 982 c 1
 224 886.666 290.667 839 384 839 c 0
 455.333 839.001 513.5 861.834 558.5 907.5 c 128
 603.5 953.167 654.334 1040.67 711 1170 c 1
 748 1252 l 1
 856.667 1494.67 1003.33 1616 1188 1616 c 0
 1398 1616 1503 1498.33 1503 1263 c 1
 1605 1263 l 2
 1675 1263 1719.83 1253.5 1739.5 1234.5 c 128
 1759.17 1215.5 1769 1172.33 1769 1105 c 2
 1769 344 l 2
 1769 238.667 1731.83 148.833 1657.5 74.5 c 128
 1583.17 0.166667 1493.33 -37 1388 -37 c 0
 1283.33 -37 1193.83 0.166667 1119.5 74.5 c 128
 1045.17 148.833 1008 238.667 1008 344 c 2
 1008 1105 l 2
 1008 1169.67 1018.5 1212.17 1039.5 1232.5 c 128
 1060.5 1252.84 1104.67 1263.01 1172 1263 c 2
 1405 1263 l 1
EndSplineSet
EndChar

StartChar: uni008F
Encoding: 143 143 72
Width: 2170
VWidth: 2048
Flags: HW
LayerCount: 2
Fore
SplineSet
1503 1184 m 1
 1603 1184 l 2
 1717 1184 1788 1172.5 1816 1149.5 c 128
 1844 1126.5 1866 1061.67 1882 955 c 2
 1984 272 l 2
 1992.67 213.333 1997 167.333 1997 134 c 0
 1997 84 1978.83 49.1667 1942.5 29.5 c 128
 1906.17 9.83333 1841.67 0 1749 0 c 2
 1160 0 l 2
 1066.67 0 1003.67 9.83333 971 29.5 c 128
 938.333 49.1667 922 87.3333 922 144 c 0
 922 178.667 925.667 221.333 933 272 c 2
 1032 956 l 2
 1046.67 1056.67 1069.33 1119.83 1100 1145.5 c 128
 1130.67 1171.17 1198.33 1184 1303 1184 c 2
 1404 1184 l 1
 1404 1340.67 1330.33 1419 1183 1419 c 0
 1027 1419 907.667 1306.67 825 1082 c 2
 808 1036 l 2
 711.333 773.333 569.667 642 383 642 c 0
 307.667 642 237.333 670.667 172 728 c 128
 106.667 785.333 74 847 74 913 c 0
 74 945.669 89.3333 962.003 120 962 c 0
 140.667 962 162 936 184 884 c 0
 224 788 290.667 740 384 740 c 0
 454.667 740.001 512.5 762.834 557.5 808.5 c 128
 602.5 854.167 653.667 942 711 1072 c 1
 748 1154 l 1
 856.667 1396.67 1003 1518 1187 1518 c 0
 1397.67 1518 1503 1406.67 1503 1184 c 1
1087 966 m 1
 984 257 l 2
 976.656 208.333 972.989 173.333 973 152 c 0
 973.002 111.333 984.835 84 1008.5 70 c 128
 1032.17 56 1078.33 49 1147 49 c 2
 1772 49 l 2
 1841.34 49 1887.67 56 1911 70 c 128
 1934.34 84 1946.01 111.333 1946 152 c 0
 1946 173.333 1942.33 208.333 1935 257 c 2
 1832 966 l 2
 1820.67 1045.33 1805 1093.33 1785 1110 c 128
 1765 1126.67 1712.33 1135 1627 1135 c 2
 1292 1135 l 2
 1208 1135 1155.33 1126.33 1134 1109 c 128
 1112.67 1091.67 1097 1044 1087 966 c 1
1268 1036 m 1
 1638 1036 l 1
 1638 592 l 1
 1268 592 l 1
 1268 1036 l 1
EndSplineSet
EndChar

StartChar: guillemotright
Encoding: 187 187 73
Width: 2048
VWidth: 2048
Flags: HW
LayerCount: 2
Fore
SplineSet
1426 255 m 0
 1426 140.333 1385.33 42.3333 1304 -39 c 128
 1222.67 -120.333 1124.67 -161 1010 -161 c 0
 894.667 -161 796.5 -120.333 715.5 -39 c 128
 634.5 42.3333 594 140.333 594 255 c 0
 594 344.334 619.667 424.667 671 496 c 128
 722.333 567.333 788.667 617.667 870 647 c 1
 840.666 680.333 826.333 721.667 827 771 c 1
 760.333 787.001 708.667 824.834 672 884.5 c 128
 635.333 944.167 617 1019 617 1109 c 2
 617 1491 l 1
 1403 1491 l 1
 1403 1109 l 2
 1403 913.667 1330.67 801.667 1186 773 c 1
 1186 770 l 1
 1182.67 720.667 1167.67 680.667 1141 650 c 1
 1225 622 1293 572.333 1345 501 c 0
 1399 427.667 1426 345.667 1426 255 c 0
1111 810 m 1
 1111 1466 l 1
 907 1466 l 1
 907 810 l 1
 1111 810 l 1
1146 767 m 1
 1126 765 1104.66 764 1082 764 c 2
 897 764 l 2
 886.995 764.023 877.328 764.357 868 765 c 1
 870 717.667 885 682.667 913 660 c 1
 945.001 667.333 977.335 671 1010 671 c 0
 1039.34 671 1068 668 1096 662 c 1
 1124.67 685.333 1141.33 720.333 1146 767 c 1
1375 250 m 1
 1287 306 l 1
 1347 392 l 1
 1244 409 l 1
 1267 512 l 1
 1163 488 l 1
 1147 591 l 1
 1061 530 l 1
 1005 620 l 1
 950 528 l 1
 864 591 l 1
 849 485 l 1
 744 512 l 1
 772 408 l 1
 664 392 l 1
 730 305 l 1
 636 250 l 1
 730 196 l 1
 664 109 l 1
 771 94 l 1
 744 -11 l 1
 848 16 l 1
 864 -92 l 1
 949 -27 l 1
 1005 -119 l 1
 1060 -29 l 1
 1147 -92 l 1
 1164 13 l 1
 1267 -11 l 1
 1243 91 l 1
 1347 109 l 1
 1286 194 l 1
 1375 250 l 1
EndSplineSet
EndChar

StartChar: onequarter
Encoding: 188 188 74
Width: 2048
VWidth: 2048
Flags: HW
LayerCount: 2
Fore
SplineSet
1794 886 m 0
 1794 672.667 1660.33 455 1393 233 c 0
 1207 79 976.333 -63.6667 701 -195 c 1
 711 -142.333 716 -92 716 -44 c 0
 716 80 676.667 192.667 598 294 c 1
 524.667 375.333 451 456.333 377 537 c 1
 298.333 635.667 259 743.667 259 861 c 0
 259 976.334 297.833 1071.17 375.5 1145.5 c 128
 453.167 1219.84 550 1257 666 1257 c 0
 745.333 1257 819 1236.33 887 1195 c 0
 961 1149.67 1008 1090.67 1028 1018 c 1
 1109.33 1177.33 1229.33 1257 1388 1257 c 0
 1494.67 1257 1588 1222.33 1668 1153 c 0
 1752 1080.33 1794 991.332 1794 886 c 0
EndSplineSet
EndChar

StartChar: onehalf
Encoding: 189 189 75
Width: 2048
VWidth: 2048
Flags: HW
LayerCount: 2
Fore
SplineSet
1778 311 m 256
 1778 225 1747.66 151.667 1687 91 c 128
 1626.33 30.3333 1553.33 0 1468 0 c 0
 1382 0 1308.67 30.3333 1248 91 c 128
 1187.33 151.667 1157 225 1157 311 c 0
 1157 373 1173.83 429.333 1207.5 480 c 128
 1241.17 530.667 1285.33 568.334 1340 593 c 1
 1316 655 l 1
 976 248 l 1
 886 257 l 1
 873.333 183.667 838.167 122.5 780.5 73.5 c 128
 722.833 24.5 656 0 580 0 c 0
 494.667 0 421.667 30.3333 361 91 c 128
 300.333 151.667 270 225 270 311 c 0
 270 396.333 300.333 469.333 361 530 c 128
 421.667 590.667 495 621.001 581 621 c 0
 623 621 663 613 701 597 c 1
 776 763 l 1
 749 839 l 1
 754 841 l 1
 735 897 l 1
 713 897 695 899 681 903 c 0
 657.665 909 645.999 919.667 646 935 c 0
 646 963.669 656 978.002 676 978 c 0
 686.667 978 701.667 975.5 721 970.5 c 128
 740.333 965.5 754 963 762 963 c 0
 771.333 963 783.667 964 799 966 c 128
 814.333 968 824 969 828 969 c 0
 839.333 969 845 961.667 845 947 c 0
 845 942.333 834 934 812 922 c 128
 790 909.997 771.667 902.33 757 899 c 1
 776 848 l 1
 780 851 l 1
 800 796 l 1
 1266 796 l 1
 1227 903 l 1
 1227 938 l 1
 1407 938 l 1
 1407 903 l 1
 1261 903 l 1
 1369 605 l 1
 1401 615.669 1434 621.002 1468 621 c 0
 1554 620.999 1627.17 590.833 1687.5 530.5 c 128
 1747.84 470.167 1778 397 1778 311 c 256
1744 311 m 256
 1744 387 1717 452 1663 506 c 128
 1609 560 1544 587 1468 587 c 0
 1439.33 587 1410 582 1380 572 c 1
 1412.67 480.667 1439 409.333 1459 358 c 2
 1482 301 l 1
 1481.97 293 1477.63 289 1469 289 c 0
 1459 289 1447 307.667 1433 345 c 2
 1352 561 l 1
 1245.33 511.667 1192 428.333 1192 311 c 0
 1192 235 1219 170 1273 116 c 128
 1327 62 1392 35 1468 35 c 256
 1544 35 1609 62 1663 116 c 128
 1717 170 1744 235 1744 311 c 256
1305 690 m 1
 1278 763 l 1
 813 763 l 1
 981 303 l 1
 1305 690 l 1
951 286 m 1
 792 719 l 1
 731 582 l 1
 837.667 522.667 891 432.333 891 311 c 2
 891 291 l 1
 951 286 l 1
856 295 m 1
 856 311 l 2
 856 417.667 809.333 497.667 716 551 c 1
 612 318 l 1
 856 295 l 1
852 260 m 1
 560 287 l 1
 687 565 l 1
 651.666 579.669 616.333 587.002 581 587 c 0
 505 587 440 560 386 506 c 128
 332 452 305 387 305 311 c 256
 305 235 331.833 170 385.5 116 c 128
 439.167 62 504 35 580 35 c 0
 647.333 35 706.5 56.3333 757.5 99 c 128
 808.5 141.667 840 195.333 852 260 c 1
EndSplineSet
EndChar

StartChar: threequarters
Encoding: 190 190 76
Width: 2048
VWidth: 2048
Flags: HW
LayerCount: 2
Fore
SplineSet
1600 1094 m 0
 1600 966 1517 851.667 1351 751 c 0
 1261 696.333 1216 624.333 1216 535 c 2
 1216 326 l 1
 832 326 l 1
 832 518 l 2
 832 592 852.5 662.834 893.5 730.5 c 128
 934.5 798.167 988 847 1054 877 c 0
 1162 926.333 1216 998.667 1216 1094 c 0
 1216 1148 1197.5 1193.5 1160.5 1230.5 c 128
 1123.5 1267.5 1078 1286 1024 1286 c 256
 970 1286 924.5 1267.5 887.5 1230.5 c 128
 850.5 1193.5 832 1148 832 1094 c 2
 832 980 l 1
 448 980 l 1
 448 1094 l 2
 448 1216 516.667 1313.67 654 1387 c 0
 767.333 1447.67 890.667 1478 1024 1478 c 0
 1158 1478 1281.67 1447.66 1395 1387 c 0
 1531.67 1314.33 1600 1216.67 1600 1094 c 0
1216 -58 m 256
 1216 -112 1197.5 -157.5 1160.5 -194.5 c 128
 1123.5 -231.5 1078 -250 1024 -250 c 256
 970 -250 924.5 -231.5 887.5 -194.5 c 128
 850.5 -157.5 832 -112 832 -58 c 256
 832 -4 850.5 41.5 887.5 78.5 c 128
 924.5 115.5 970 134 1024 134 c 256
 1078 134 1123.5 115.5 1160.5 78.5 c 128
 1197.5 41.5 1216 -4 1216 -58 c 256
EndSplineSet
EndChar

StartChar: questiondown
Encoding: 191 191 77
Width: 2048
VWidth: 2048
Flags: HW
LayerCount: 2
Fore
SplineSet
1344 1270 m 1
 894 945 l 1
 1025 55 l 1
 1015.66 41.6667 1005.33 35 994 35 c 0
 983.333 35 976.667 44.3333 974 63 c 2
 794 1383 l 2
 790.67 1409 797.336 1422 814 1422 c 0
 822.67 1422 833.336 1371.33 846 1270 c 1
 966 1268 1132 1268 1344 1270 c 1
1308 15 m 0
 1308 -27.6667 1268.66 -60 1190 -82 c 0
 1134 -98 1077 -106 1019 -106 c 256
 961 -106 904 -98 848 -82 c 0
 770 -60 731 -27.6667 731 15 c 0
 731 47.6667 755.667 76 805 100 c 1
 846.333 119.333 885.667 129 923 129 c 0
 928.333 129 937.833 107.5 951.5 64.5 c 128
 965.167 21.5 984.667 0 1010 0 c 0
 1025.33 0 1035.33 22.1667 1040 66.5 c 128
 1044.67 110.833 1051.67 133 1061 133 c 0
 1101.67 133 1150 122.667 1206 102 c 0
 1274 76.6667 1308 47.6667 1308 15 c 0
1248 1234 m 1
 853 1234 l 1
 888 989 l 1
 978.668 1057 1098.67 1138.67 1248 1234 c 1
EndSplineSet
EndChar

StartChar: Agrave
Encoding: 192 192 78
Width: 2048
VWidth: 2048
Flags: HW
LayerCount: 2
Fore
SplineSet
1886 1479 m 1
 1129 94 l 1
 920 492 l 1
 163 -230 l 1
 933 1103 l 1
 1144 757 l 1
 1886 1479 l 1
EndSplineSet
EndChar

StartChar: Aacute
Encoding: 193 193 79
Width: 2048
VWidth: 2048
Flags: HW
LayerCount: 2
Fore
SplineSet
1639 877 m 0
 1639 689.667 1600.66 506 1524 326 c 0
 1458 171.333 1374.33 41.6667 1273 -63 c 0
 1177.67 -161 1094.67 -210 1024 -210 c 256
 953.333 -210 870.333 -161 775 -63 c 0
 673.666 41.6667 590 171.333 524 326 c 0
 447.333 506 409 689.667 409 877 c 0
 409 1053 460.333 1195 563 1303 c 0
 673 1419 826.667 1477 1024 1477 c 256
 1221.33 1477 1375 1419 1485 1303 c 0
 1587.67 1195 1639 1053 1639 877 c 0
1450 679 m 1
 1412 672.333 1377.66 664 1347 654 c 0
 1273 630.666 1222 601.333 1194 566 c 0
 1159.33 521.333 1140.66 446 1138 340 c 1
 1173.34 346.001 1206 353.668 1236 363 c 0
 1307.33 385 1357.67 412.667 1387 446 c 0
 1432.33 497.334 1453.33 575 1450 679 c 1
910 340 m 1
 909.333 370.667 907 399.333 903 426 c 0
 893 488.667 876.667 535.333 854 566 c 1
 812.666 619.333 727.333 657 598 679 c 1
 594.667 575 615.667 497.333 661 446 c 0
 704.333 396.667 787.333 361.333 910 340 c 1
EndSplineSet
EndChar

StartChar: Acircumflex
Encoding: 194 194 80
Width: 2048
VWidth: 2048
Flags: HW
LayerCount: 2
Fore
SplineSet
790 1395 m 0
 794 1383.67 796 1372 796 1360 c 0
 795.999 1308 771.333 1273.66 722 1257 c 0
 710.665 1253 698.999 1251 687 1251 c 0
 634.999 1251 600.333 1275.67 583 1325 c 0
 579.658 1336.34 577.991 1348.01 578 1360 c 0
 578.001 1411.33 602.334 1445.33 651 1462 c 0
 663 1466 675 1468 687 1468 c 0
 739.001 1468 773.334 1443.66 790 1395 c 0
839 1407 m 0
 845 1389.67 848 1371.67 848 1353 c 0
 847.998 1309 832.331 1271 801 1239 c 1
 786.333 1251.01 769 1256.68 749 1256 c 1
 789.669 1279.33 810.002 1314.33 810 1361 c 0
 810 1374.33 808 1387.33 804 1400 c 0
 784.667 1455.34 745.667 1483 687 1483 c 0
 673 1482.95 659.667 1480.62 647 1476 c 0
 591 1456.67 563 1418 563 1360 c 0
 563 1345.99 565 1332.66 569 1320 c 0
 589.667 1259.33 632 1232 696 1238 c 1
 673.333 1223.99 661.667 1207.66 661 1189 c 1
 595 1195.67 550.333 1232.67 527 1300 c 0
 521 1317.33 518 1335.33 518 1354 c 0
 518 1432 555 1483.67 629 1509 c 0
 649 1516.37 668.667 1520.03 688 1520 c 0
 762.667 1520 813 1482.33 839 1407 c 0
1266 926 m 1
 1271.31 901.997 1269.65 887.331 1261 882 c 1
 1245 885.333 1225 886.333 1201 885 c 1
 1184.33 869.666 1155 850.333 1113 827 c 1
 667 673 l 2
 651.665 667.662 630.998 664.995 605 665 c 2
 562 665 l 1
 557.333 664.333 549.667 657.833 539 645.5 c 128
 528.333 633.167 520.667 626.667 516 626 c 0
 510 624.671 502.333 628.338 493 637 c 1
 484.333 643.667 479.333 649.667 478 655 c 0
 476 661.003 481 671.336 493 686 c 0
 508.334 704.667 529.334 719.334 556 730 c 0
 570.668 736 585.002 739 599 739 c 0
 621 738.997 639.667 732.331 655 719 c 1
 713.667 743 772.333 767.667 831 793 c 1
 831 797.009 827 801.342 819 806 c 0
 808.997 811.333 803.33 815 802 817 c 1
 785 811 l 1
 741.667 898.333 714.667 957.333 704 988 c 1
 688 1030.67 675 1087.67 665 1159 c 1
 670.333 1185.67 676.333 1203.33 683 1212 c 0
 688.333 1218.01 701 1225.68 721 1235 c 1
 755 1244.99 786 1236.66 814 1210 c 1
 862 1135.33 891 1081 901 1047 c 1
 911.667 985.666 922.667 924 934 862 c 1
 920 858 l 1
 920 854.667 918.167 849.167 914.5 841.5 c 128
 910.833 833.833 909 828.333 909 825 c 0
 909.014 820.994 911.347 818.327 916 817 c 0
 936.667 811.668 996.334 829.335 1095 870 c 1
 1097.02 880.003 1100.68 889.337 1106 898 c 0
 1118.67 918 1138.33 932 1165 940 c 0
 1181 944.681 1196 947.014 1210 947 c 0
 1242.67 947 1261.33 940 1266 926 c 1
1324 -132 m 0
 1316 -190.667 1298 -256.333 1270 -329 c 1
 1231.33 -303 1181.33 -261.667 1120 -205 c 1
 1075.33 -147 966.332 123 793 605 c 1
 801.003 609 811.336 620 824 638 c 1
 830 656.001 826.667 679.334 814 708 c 1
 984 770 l 1
 992 748.666 1005.67 726.999 1025 705 c 1
 1036.33 703 1055.33 702.667 1082 704 c 1
 1250.67 200 1331.33 -78.6667 1324 -132 c 0
1251 -285 m 1
 942 601 l 1
 889 601 l 1
 860 561 l 1
 950.667 325.667 1046.67 85.3333 1148 -160 c 1
 1157.34 -168.667 1191.67 -210.333 1251 -285 c 1
EndSplineSet
EndChar

StartChar: Atilde
Encoding: 195 195 81
Width: 2048
VWidth: 2048
Flags: HW
LayerCount: 2
Fore
SplineSet
1800 706 m 1
 1740.67 605.333 1674 519.333 1600 448 c 0
 1422 276 1221.67 190 999 190 c 0
 801.667 190 616.667 278 444 454 c 0
 372 527.333 305.667 615.333 245 718 c 1
 311.667 718.001 380 740.334 450 785 c 1
 504.667 827 559.667 869 615 911 c 0
 674.333 955.668 724.667 978.001 766 978 c 0
 810.667 977.994 856.334 970.328 903 955 c 1
 935 942.333 967 929.333 999 916 c 1
 1087.67 954.669 1168.33 974.003 1241 974 c 0
 1297 974 1384.5 929.333 1503.5 840 c 128
 1622.5 750.666 1721.33 706 1800 706 c 1
1535 673 m 1
 1444.33 670.995 1317.33 666.328 1154 659 c 1
 1130.67 657 1101.67 651.667 1067 643 c 0
 1036.33 635.659 1013.67 631.993 999 632 c 0
 985.665 632 964.331 637 935 647 c 0
 902.333 657.669 872 664.003 844 666 c 0
 754 674.01 638.667 676.344 498 673 c 1
 566 635.666 634.334 598.333 703 561 c 1
 814.333 506.333 913 479 999 479 c 0
 1135.67 479 1314.33 543.667 1535 673 c 1
EndSplineSet
EndChar

StartChar: Adieresis
Encoding: 196 196 82
Width: 2048
VWidth: 2048
Flags: HW
LayerCount: 2
Fore
SplineSet
1842 1109 m 1
 1531 814 l 1
 1510 833 l 1
 1785 1160 l 1
 1842 1109 l 1
1872 688 m 1
 1556 708 l 1
 1556 741 l 1
 1872 779 l 1
 1872 688 l 1
1842 358 m 1
 1785 307 l 1
 1510 634 l 1
 1531 652 l 1
 1842 358 l 1
1466 433 m 0
 1466 376.333 1382 328.667 1214 290 c 0
 1194.67 285.333 1182.67 272.333 1178 251 c 0
 1176.67 244.333 1176 223.667 1176 189 c 0
 1176 163.667 1181.33 130.167 1192 88.5 c 128
 1202.67 46.8333 1208 17.3333 1208 0 c 1
 524 0 l 1
 524 21.3333 524.667 52 526 92 c 0
 527.333 136 528 167.333 528 186 c 0
 528 324.667 488.333 423.667 409 483 c 0
 321.667 548.333 260.333 621.333 225 702 c 0
 191.667 778 175 877.333 175 1000 c 0
 175 1128.67 240.667 1243 372 1343 c 0
 494 1436.33 621.333 1483 754 1483 c 2
 793 1483 l 2
 1013 1483 1140.33 1436.33 1175 1343 c 1
 1183.67 1306.33 1194.67 1266 1208 1222 c 1
 1220.67 1205.33 1227.33 1195.83 1228 1193.5 c 128
 1228.67 1191.17 1229 1179.67 1229 1159 c 0
 1229 1114.33 1240.33 1082.33 1263 1063 c 0
 1273.67 1053.67 1301 1041 1345 1025 c 0
 1387 1010.33 1420 991 1444 967 c 0
 1448.67 962.333 1451 957.333 1451 952 c 0
 1450.99 941.997 1433.16 925.331 1397.5 902 c 128
 1361.83 878.666 1343.99 856.999 1344 837 c 0
 1344 821.665 1350 809.998 1362 802 c 1
 1376 791.333 1383.33 785.333 1384 784 c 1
 1366 770.666 1340.66 747.999 1308 716 c 1
 1292 697.333 1274 674 1254 646 c 1
 1310.67 628 1368.33 619 1427 619 c 0
 1433 619 1436 614.667 1436 606 c 0
 1436 590 1431.33 573.167 1422 555.5 c 128
 1412.67 537.833 1408 526.667 1408 522 c 0
 1408.01 512 1417.68 499.666 1437 485 c 128
 1456.34 470.333 1466.01 453 1466 433 c 0
EndSplineSet
EndChar

StartChar: Igrave
Encoding: 204 204 83
Width: 2048
VWidth: 2048
Flags: HW
LayerCount: 2
Fore
SplineSet
1770 583 m 0
 1769.99 547.667 1751.66 528.667 1715 526 c 1
 1637 526 l 1
 1637 483 l 1
 1667 483 l 1
 1667 402 l 1
 1637 402 l 1
 1637 374 l 1
 1667 374 l 1
 1667 258 l 1
 1612 258 l 1
 1612 308 l 1
 1523 308 l 1
 1523 258 l 1
 1463 258 l 1
 1463 374 l 1
 1488 374 l 1
 1488 402 l 1
 1463 402 l 1
 1463 483 l 1
 1488 483 l 1
 1488 526 l 1
 795 526 l 1
 782.333 502 768 490 752 490 c 0
 736.665 490 724.332 502 715 526 c 1
 687 526 l 1
 687 490 l 1
 649.665 490 630.998 502 631 526 c 1
 610 526 l 1
 616.668 514 625.335 496 636 472 c 1
 642.672 452.667 646.005 426 646 392 c 0
 646 346.667 629.5 307.667 596.5 275 c 128
 563.5 242.333 525.333 226 482 226 c 0
 344 226 275 293.333 275 428 c 0
 275 479.333 295.667 526.667 337 570 c 1
 325 583.333 312 604.333 298 633 c 128
 284 661.669 277 682.002 277 694 c 0
 277 853.333 345.333 933 482 933 c 0
 525.333 933 563.5 916.667 596.5 884 c 128
 629.5 851.333 646 812.333 646 767 c 0
 646 733 633.667 693 609 647 c 1
 629 647 l 1
 628.333 663.669 634 674.336 646 679 c 0
 652 681.667 664.667 682.667 684 682 c 1
 684 647 l 1
 713 647 l 1
 721.668 670.333 734.001 682 750 682 c 256
 766 681.999 781 670.332 795 647 c 1
 1718 647 l 2
 1730.67 646.998 1742.5 640.331 1753.5 627 c 128
 1764.5 613.665 1770 598.998 1770 583 c 0
571 776 m 0
 571 827.333 536.667 853 468 853 c 0
 394.667 853 358 823.667 358 765 c 0
 358 721 369.667 699 393 699 c 0
 407.667 699 422 706.667 436 722 c 1
 438 682.667 439 660.667 439 656 c 0
 438.998 647.333 434.665 634 426 616 c 0
 416 595.333 410.333 582.333 409 577 c 1
 409.667 573.666 415.333 561.999 426 542 c 0
 434.667 526 439 513 439 503 c 0
 438.998 471 435.665 448.333 429 435 c 1
 420.333 451.667 408.333 460 393 460 c 0
 364.333 460 350 443 350 409 c 0
 350 339.667 391.333 305 474 305 c 0
 538 305 570 336 570 398 c 0
 570 432.667 565 450 555 450 c 0
 541 449.999 533 441.665 531 425 c 0
 528.999 405 518.332 395 499 395 c 0
 479 395 469 410 469 440 c 0
 469 482 491.667 504.667 537 508 c 1
 519.664 521.333 510.997 544.667 511 578 c 0
 511 612.667 519.667 637.001 537 651 c 1
 491.667 654.333 469 677 469 719 c 0
 469 749 479 764 499 764 c 0
 518.333 764 529 754 531 734 c 0
 533 717.333 541 709 555 709 c 0
 565.669 709.001 571.002 731.334 571 776 c 0
EndSplineSet
EndChar

StartChar: Iacute
Encoding: 205 205 84
Width: 2048
VWidth: 2048
Flags: HW
LayerCount: 2
Fore
SplineSet
1339 109 m 0
 1339 27 1308 -43 1246 -101 c 128
 1184 -159 1109.33 -188 1022 -188 c 256
 934.667 -188 860.167 -159 798.5 -101 c 128
 736.833 -43 706 27 706 109 c 0
 706 203 745 279.667 823 339 c 1
 823 1239 l 2
 823 1293.67 842.667 1340.17 882 1378.5 c 128
 921.333 1416.84 968.667 1436.01 1024 1436 c 0
 1078.67 1435.99 1125.33 1416.66 1164 1378 c 128
 1202.67 1339.33 1222 1292.67 1222 1238 c 2
 1222 339 l 1
 1300 279.667 1339 203 1339 109 c 0
1184 119 m 0
 1184 167 1164 206.333 1124 237 c 1
 1124 1243 l 2
 1123.99 1271 1114.15 1295 1094.5 1315 c 128
 1074.83 1335 1051 1345 1023 1345 c 256
 994.999 1344.99 970.832 1335.16 950.5 1315.5 c 128
 930.161 1295.83 919.995 1272 920 1244 c 2
 920 237 l 1
 880 207 860 167.667 860 119 c 0
 860.002 77 875.836 41.3333 907.5 12 c 128
 939.169 -17.3333 977.335 -32 1022 -32 c 256
 1066.67 -32 1104.83 -17.3333 1136.5 12 c 128
 1168.17 41.3333 1184 77 1184 119 c 0
1094 790 m 1
 1094 204 l 1
 1124.67 180.667 1140 152.333 1140 119 c 0
 1140 88.3333 1128.5 62.1667 1105.5 40.5 c 128
 1082.5 18.8333 1054.66 8 1022 8 c 256
 989.333 8 961.5 18.8333 938.5 40.5 c 128
 915.5 62.1667 904 88.3333 904 119 c 0
 904 152.333 919.667 180.667 951 204 c 1
 951 790 l 1
 1094 790 l 1
EndSplineSet
EndChar

StartChar: Icircumflex
Encoding: 206 206 85
Width: 2048
VWidth: 2048
Flags: HW
LayerCount: 2
Fore
SplineSet
1765 806 m 1
 1734.33 824.671 1706.66 834.005 1682 834 c 0
 1669.99 833.99 1656.66 830.324 1642 823 c 1
 1700 797 1729 766 1729 730 c 0
 1729 712.664 1726 694.331 1720 675 c 1
 1682.67 717.667 1646.67 739.001 1612 739 c 0
 1574 739 1531.33 726 1484 700 c 1
 1492.67 660.666 1502 629.333 1512 606 c 0
 1516.01 596.666 1530.67 573.999 1556 538 c 1
 1574.67 512.666 1584 487.333 1584 462 c 0
 1584 442.667 1577 416.5 1563 383.5 c 128
 1549 350.5 1542 325.333 1542 308 c 1
 1665 308 l 1
 1655 230 1655 230 1645 152 c 1
 1635.67 90 1622.67 39.3333 1606 0 c 1
 1470 0 l 1
 1470 8 l 2
 1470.01 42.6667 1489.67 64.8333 1529 74.5 c 128
 1568.34 84.1667 1588.01 101.333 1588 126 c 0
 1588 139.333 1584.5 155 1577.5 173 c 128
 1570.5 191 1553 202.333 1525 207 c 0
 1489 213 1466 219.667 1456 227 c 0
 1443.33 236.333 1416.33 276.333 1375 347 c 0
 1341.67 404.334 1307.33 433 1272 433 c 0
 1244 433 1230 411.666 1230 369 c 0
 1230 315 1240.33 266.667 1261 224 c 1
 1223 191.333 1185 158.333 1147 125 c 1
 1101 80.3333 1076 38.6667 1072 0 c 1
 936 0 l 1
 941.333 20 947.667 33.6667 955 41 c 1
 985.668 52.3333 1016.33 63.3333 1047 74 c 1
 1099.67 100.667 1126 144.667 1126 206 c 0
 1126 221.333 1120 247 1108 283 c 0
 1093.33 327 1080.33 356 1069 370 c 0
 1050.33 392.667 1021.67 404 983 404 c 0
 903 404 851 387.333 827 354 c 0
 808.333 328.667 799 276.333 799 197 c 0
 798.997 193 791.33 163.333 776 108 c 1
 760 47.3333 751 11.3333 749 0 c 1
 624 0 l 1
 630.668 28.6667 643.335 47.3333 662 56 c 0
 683.333 65.3334 697.333 77.6667 704 93 c 0
 717.333 122.333 724 178.333 724 261 c 0
 724 342.333 710 383 682 383 c 0
 654.666 383 616.999 311.667 569 169 c 1
 515.667 129.667 470 73.3333 432 0 c 1
 301 0 l 1
 301.667 18.6667 305.667 33.3333 313 44 c 0
 319 52.6667 330.667 58.3334 348 61 c 0
 369.334 63.6667 382.667 66.3333 388 69 c 0
 413.334 82.3333 446.667 125.667 488 199 c 0
 539.333 290.333 565 393.667 565 509 c 0
 565 631.667 557.667 709.334 543 742 c 0
 535.667 758.67 528.667 776.336 522 795 c 1
 438 769 377.333 756 340 756 c 0
 289.333 756 264 779 264 825 c 0
 264 839.67 274 859.337 294 884 c 0
 308.667 901.333 323.333 919 338 937 c 0
 345.335 947 350.001 963.167 352 985.5 c 128
 354 1007.83 358.833 1023.33 366.5 1032 c 128
 374.167 1040.67 385 1056 399 1078 c 1
 381 1108.67 372 1137 372 1163 c 256
 372 1189 383.667 1211.67 407 1231 c 1
 418.334 1191 441.667 1150.33 477 1109 c 1
 494.334 1111 509 1112 521 1112 c 0
 526.333 1112 555.333 1109.33 608 1104 c 1
 656.667 1146 696.334 1178.33 727 1201 c 1
 731.678 1187 734.011 1174.33 734 1163 c 0
 733.999 1121 710.333 1081.66 663 1045 c 1
 659.657 1029.67 657.99 1012 658 992 c 0
 658 960 668 935 688 917 c 1
 710.001 901.664 732.334 885.997 755 870 c 1
 843.667 802 926.001 768 1002 768 c 0
 1029.34 768 1069 776.667 1121 794 c 128
 1173 811.333 1212.67 820 1240 820 c 0
 1264.67 820 1303.5 815.667 1356.5 807 c 128
 1409.5 798.333 1451 794 1481 794 c 0
 1543 794 1574 812 1574 848 c 0
 1573.99 859.333 1560.66 887 1534 931 c 0
 1503.33 981.667 1448.66 1026.33 1370 1065 c 1
 1414.67 1075.67 1452 1081 1482 1081 c 0
 1526.67 1081 1581 1070 1645 1048 c 1
 1606.33 1043.99 1571 1034.65 1539 1020 c 1
 1607.67 1014.66 1677.33 997.998 1748 970 c 1
 1736.67 972 1725 973 1713 973 c 0
 1672.33 973 1647 957 1637 925 c 1
 1699.67 914.999 1742.33 875.332 1765 806 c 1
527 723 m 256
 527 701 519 690 503 690 c 0
 487.667 690 480 701 480 723 c 256
 480.001 745 487.668 756 503 756 c 0
 519 756 527 745 527 723 c 256
689 904 m 1
 658 935 l 1
 619.333 884.333 575.667 844.333 527 815 c 1
 555 765 l 1
 591.667 806.333 636.334 852.667 689 904 c 1
524 964 m 1
 514.665 979.333 505.332 987 496 987 c 0
 485.333 987 475.333 976.667 466 956 c 1
 476 943.333 486 937 496 937 c 256
 506 937 515.334 946 524 964 c 1
343 825 m 2
 343 831 l 1
 290 842 l 1
 290 808 299 791 317 791 c 0
 334.334 791.002 343.001 802.335 343 825 c 2
505 967 m 256
 504.998 961.656 501.665 956.989 495 953 c 1
 488.331 957 484.998 961.667 485 967 c 256
 485 972.333 488.333 977 495 981 c 1
 501.667 976.989 505 972.322 505 967 c 256
EndSplineSet
EndChar

StartChar: Idieresis
Encoding: 207 207 86
Width: 2048
VWidth: 2048
Flags: HW
LayerCount: 2
Fore
SplineSet
1485 1038 m 0
 1484.99 1008 1467.66 977 1433 945 c 1
 1291 933 l 2
 1275 931.667 1261 923.167 1249 907.5 c 128
 1237 891.833 1231 876 1231 860 c 0
 1231 832 1241.5 799.667 1262.5 763 c 128
 1283.5 726.333 1294 689.667 1294 653 c 0
 1294 619 1290 568.667 1282 502 c 128
 1274 435.333 1270 385 1270 351 c 0
 1270 333 1268.83 306.333 1266.5 271 c 128
 1264.17 235.667 1263 209 1263 191 c 0
 1263 179 1264 160.667 1266 136 c 128
 1268 111.333 1269 93 1269 81 c 0
 1269 60.3333 1277 47.1667 1293 41.5 c 128
 1309 35.8333 1317 27.6667 1317 17 c 0
 1317 13.6667 1316.33 8 1315 0 c 1
 1205 0 l 1
 1238.34 -13.3333 1255.01 -27.6667 1255 -43 c 0
 1255 -61 1233.66 -70 1191 -70 c 0
 1160.33 -70 1139.99 -60.3333 1130 -41 c 0
 1123.32 -27.6667 1119.98 -4 1120 30 c 0
 1120 49.3333 1120.33 78.1667 1121 116.5 c 128
 1121.67 154.833 1122 183.667 1122 203 c 0
 1122 327.667 1100.66 433.333 1058 520 c 1
 1056.67 517.333 1056 513 1056 507 c 0
 1056.01 489.667 1062.67 466 1076 436 c 0
 1090.01 404 1097.67 380.666 1099 366 c 0
 1111.67 246.667 1118 177.667 1118 159 c 0
 1118 142.333 1114.83 118.833 1108.5 88.5 c 128
 1102.17 58.1667 1099 39.6667 1099 33 c 0
 1099 31 1101.83 25.5 1107.5 16.5 c 128
 1113.17 7.5 1116 -1.66667 1116 -11 c 0
 1116 -44.3333 1066 -61 966 -61 c 0
 923.333 -61 895.333 -55 882 -43 c 1
 803.333 -43 736 -3.33333 680 76 c 1
 611.333 88.6667 554.333 114.333 509 153 c 0
 458.333 197 433 249.333 433 310 c 0
 433 347.333 444.333 394 467 450 c 128
 489.667 506 501 545.667 501 569 c 0
 501 648.333 456.667 702.667 368 732 c 0
 327.333 745.333 307 757.667 307 769 c 0
 307 787.67 317.333 797.003 338 797 c 0
 400 797 453.5 773.5 498.5 726.5 c 128
 543.5 679.5 566 624.667 566 562 c 0
 566 524.666 554.667 479.666 532 427 c 128
 509.333 374.333 498 336.667 498 314 c 0
 498 266.667 515 228 549 198 c 0
 580.333 170 620.667 153.667 670 149 c 1
 670 323 726.334 500.333 839 681 c 0
 863 720.333 902.667 771.833 958 835.5 c 128
 1013.33 899.167 1052 948.667 1074 984 c 1
 1097.33 1023.33 1120.33 1063 1143 1103 c 1
 1175 1154.34 1204.67 1186.67 1232 1200 c 1
 1230.67 1207.33 1230 1214.33 1230 1221 c 0
 1230.01 1235.67 1239.68 1258.33 1259 1289 c 1
 1271.67 1279.67 1283.33 1263.33 1294 1240 c 1
 1302.67 1262 1321.33 1279.67 1350 1293 c 1
 1360 1273.67 1365 1257.67 1365 1245 c 0
 1365 1236.32 1363 1226.99 1359 1217 c 1
 1387.67 1212.33 1407.33 1197.33 1418 1172 c 0
 1436.67 1129.33 1448 1105.66 1452 1101 c 0
 1474 1074.33 1485 1053.33 1485 1038 c 0
1419 1120 m 1
 1406.33 1130 1394.99 1135 1385 1135 c 0
 1375.67 1134.99 1365.33 1126.66 1354 1110 c 1
 1364.67 1100.67 1375 1096 1385 1096 c 0
 1395.67 1096 1407 1104 1419 1120 c 1
1478 1040 m 1
 1457 1039 l 1
 1469 1015 l 1
 1478 1040 l 1
1240 916 m 1
 1218.67 930.002 1197.33 944.335 1176 959 c 1
 1146.67 982.333 1127 1007.33 1117 1034 c 1
 1089 981 l 1
 1102.33 960.333 1146.33 921.667 1221 865 c 1
 1240 916 l 1
1266 593 m 0
 1266 634.333 1265.33 665.333 1264 686 c 1
 1259.32 637.333 1249.99 565 1236 469 c 1
 1256 523.667 1266 565 1266 593 c 0
1402 1115 m 0
 1402 1105 1397.33 1100 1388 1100 c 0
 1378 1100 1373 1105 1373 1115 c 0
 1373 1124.36 1378 1129.03 1388 1129 c 0
 1397.37 1129 1402.03 1124.33 1402 1115 c 0
EndSplineSet
EndChar

StartChar: P
Encoding: 80 80 87
Width: 2048
VWidth: 2048
Flags: HW
LayerCount: 2
Fore
SplineSet
1538 546 m 2
 1538 485.333 1501.66 434 1429 392 c 0
 1365.67 356 1301 338 1235 338 c 0
 1182.33 338 1136 347.333 1096 366 c 0
 1044 390 1018 425 1018 471 c 0
 1018 528.333 1057 575 1135 611 c 0
 1197.67 640.333 1261.33 655 1326 655 c 0
 1372 655 1412.67 648 1448 634 c 1
 1448 1082 l 1
 850 817 l 1
 850 198 l 2
 849.999 138 814.332 86.3333 743 43 c 0
 680.333 5 616.667 -14 552 -14 c 0
 500 -14 454 -4.66667 414 14 c 0
 362 37.3333 336 72.3333 336 119 c 0
 336 175.667 374.667 222.333 452 259 c 0
 514.667 288.334 578.334 303 643 303 c 0
 687.001 303 726.334 296.333 761 283 c 1
 761 1081 l 1
 1538 1423 l 1
 1538 546 l 2
EndSplineSet
EndChar

StartChar: Q
Encoding: 81 81 88
Width: 2048
VWidth: 2048
Flags: HW
LayerCount: 2
Fore
SplineSet
1638 1318 m 1
 381 860 l 1
 311 1052 l 1
 1568 1509 l 1
 1638 1318 l 1
1729 0 m 1
 383 0 l 1
 383 850 l 1
 1729 850 l 1
 1729 0 l 1
1561 1317 m 1
 1561 1480 l 1
 1472 1448 l 1
 1472 1284 l 1
 1561 1317 l 1
1384 1252 m 1
 1384 1416 l 1
 1295 1384 l 1
 1295 1219 l 1
 1384 1252 l 1
1201 1189 m 1
 1201 1351 l 1
 1112 1319 l 1
 1112 1156 l 1
 1201 1189 l 1
1704 670 m 1
 1648 824 l 1
 1553 824 l 1
 1609 670 l 1
 1704 670 l 1
1510 670 m 1
 1454 824 l 1
 1359 824 l 1
 1415 670 l 1
 1510 670 l 1
1023 1120 m 1
 1023 1284 l 1
 934 1252 l 1
 934 1088 l 1
 1023 1120 l 1
1323 670 m 1
 1267 824 l 1
 1172 824 l 1
 1228 670 l 1
 1323 670 l 1
840 1057 m 1
 840 1220 l 1
 750 1188 l 1
 750 1024 l 1
 840 1057 l 1
1129 670 m 1
 1073 824 l 1
 978 824 l 1
 1034 670 l 1
 1129 670 l 1
665 990 m 1
 665 1154 l 1
 575 1121 l 1
 575 958 l 1
 665 990 l 1
938 670 m 1
 882 824 l 1
 787 824 l 1
 843 670 l 1
 938 670 l 1
481 927 m 1
 481 1090 l 1
 392 1058 l 1
 392 894 l 1
 481 927 l 1
745 670 m 1
 688 824 l 1
 594 824 l 1
 649 670 l 1
 745 670 l 1
556 670 m 1
 499 824 l 1
 404 824 l 1
 460 670 l 1
 556 670 l 1
EndSplineSet
EndChar

StartChar: R
Encoding: 82 82 89
Width: 2048
VWidth: 2048
Flags: HW
LayerCount: 2
Fore
SplineSet
1704 235 m 2
 1704 206.333 1676.66 192 1622 192 c 1
 1626 185.333 1628 176 1628 164 c 0
 1627.99 135.333 1619.65 117.333 1603 110 c 1
 1603 66 l 1
 1641 0 l 1
 425 0 l 1
 466 66 l 1
 466 109 l 1
 447.332 116.333 437.999 136.333 438 169 c 0
 438 177 440.333 184.667 445 192 c 1
 415 191 l 1
 373 190.333 352 205 352 235 c 2
 352 1253 l 2
 352 1281.67 366.333 1296 395 1296 c 2
 1661 1296 l 2
 1689.67 1295.99 1704 1281.66 1704 1253 c 2
 1704 235 l 2
1590 769 m 0
 1590 926.333 1581 1044.33 1563 1123 c 0
 1558.31 1141.67 1553.48 1153.5 1548.5 1158.5 c 128
 1543.5 1163.5 1532 1168 1514 1172 c 0
 1442 1186.67 1286 1194 1046 1194 c 0
 787.333 1193.99 619.667 1186.66 543 1172 c 0
 524.333 1168 512.667 1163.5 508 1158.5 c 128
 503.331 1153.5 498.665 1141.66 494 1123 c 0
 475.332 1042.33 465.999 922.333 466 763 c 0
 466 581.667 475.333 446.667 494 358 c 0
 500 331.333 516.334 315.333 543 310 c 0
 634.333 291.333 805.333 281.999 1056 282 c 0
 1276 282 1428.67 291.333 1514 310 c 0
 1540.67 315.333 1557 331.333 1563 358 c 0
 1581 444.667 1590 581.667 1590 769 c 0
1525 94 m 0
 1524.98 114.667 1514.65 125 1494 125 c 0
 1474 125 1464 114.667 1464 94 c 0
 1464 74 1474 64 1494 64 c 0
 1514.67 64 1525 74 1525 94 c 0
1388 64 m 1
 1388 117 l 1
 1284 117 l 1
 1284 64 l 1
 1388 64 l 1
1253 64 m 1
 1253 117 l 1
 1149 117 l 1
 1149 64 l 1
 1253 64 l 1
1115 64 m 1
 1115 117 l 1
 1012 117 l 1
 1012 64 l 1
 1115 64 l 1
EndSplineSet
EndChar

StartChar: S
Encoding: 83 83 90
Width: 2048
VWidth: 2048
Flags: HW
LayerCount: 2
Fore
SplineSet
1025 1199 m 1
 994.997 1207.67 977.331 1212 972 1212 c 0
 967.333 1212 955.667 1207 937 1197 c 1
 944.333 1217 957.333 1227 976 1227 c 0
 991.333 1226.99 1007.67 1217.66 1025 1199 c 1
1048 1172 m 1
 1027.33 1178.67 1007.33 1182 988 1182 c 0
 969.333 1182 947.333 1175 922 1161 c 1
 941.333 1188.34 961.333 1202 982 1202 c 256
 1002.67 1202 1024.67 1192 1048 1172 c 1
1060 1154 m 1
 1026 1155 l 2
 1017.33 1155 984.333 1151.33 927 1144 c 1
 945 1162.67 966 1172 990 1172 c 0
 1010.67 1172 1034 1166 1060 1154 c 1
1983 150 m 0
 1982.99 120.667 1962.66 94 1922 70 c 1
 1885.33 49.3333 1851.33 39 1820 39 c 0
 1796.67 39 1742 83.3333 1656 172 c 1
 1574 258 1526.67 315.667 1514 345 c 0
 1496.67 384.334 1484.67 404 1478 404 c 0
 1472 404 1455 393 1427 371 c 0
 1365.67 321 1302.67 287.667 1238 271 c 0
 1189.33 259 1118.33 253 1025 253 c 0
 993 253 946.333 260.167 885 274.5 c 128
 823.666 288.834 777 296.001 745 296 c 0
 709 296 681 292 661 284 c 0
 648.333 278.667 635.333 237.667 622 161 c 0
 606.667 69 587.667 2 565 -40 c 0
 527 -110.667 470.667 -146 396 -146 c 0
 365.333 -146 340.666 -129.333 322 -96 c 0
 305.332 -67.3333 296.999 -36.6667 297 -4 c 0
 297 316.667 328 554 390 708 c 0
 482.667 936.667 660.667 1079.33 924 1136 c 0
 970.667 1146 1022 1151 1078 1151 c 0
 1372.67 1151 1604 1015.33 1772 744 c 0
 1810 682.667 1853.67 586 1903 454 c 0
 1956.34 310 1983 208.667 1983 150 c 0
1019 1304 m 0
 1018.99 1274.67 1014.32 1247.33 1005 1222 c 1
 995 1232 986.667 1237 980 1237 c 0
 967.995 1237 959.328 1235.33 954 1232 c 1
 966 1253.34 972 1282 972 1318 c 0
 972 1372 935 1399 861 1399 c 0
 796.333 1399 703 1349 581 1249 c 0
 441 1135 353.667 1071.33 319 1058 c 1
 264.333 1041.33 210 1025 156 1009 c 1
 104.667 985 79 940.667 79 876 c 0
 79 779.333 162.333 660 329 518 c 1
 319 455 l 1
 205.667 576.333 145.667 641.333 139 650 c 0
 68.3333 738 33 815 33 881 c 0
 33 963.667 67 1019.67 135 1049 c 1
 203.667 1069 272.333 1088.67 341 1108 c 1
 352.333 1112 389.333 1141.67 452 1197 c 0
 632 1355 771.667 1434 871 1434 c 0
 969.667 1434 1019 1390.67 1019 1304 c 0
1644 786 m 0
 1643.99 798.668 1635.15 810.502 1617.5 821.5 c 128
 1599.82 832.5 1583.99 838 1570 838 c 0
 1552 838 1543 827 1543 805 c 0
 1543 790.998 1550.5 778.832 1565.5 768.5 c 128
 1580.5 758.161 1595.33 752.994 1610 753 c 0
 1632.67 753 1644 764 1644 786 c 0
1481 903 m 0
 1481 921.672 1469 931.005 1445 931 c 0
 1415 931 1400 925 1400 913 c 0
 1400 892.333 1414 882 1442 882 c 0
 1468 882 1481 889 1481 903 c 0
1398 844 m 0
 1398 866 1384 877 1356 877 c 0
 1330 877 1317 871.667 1317 861 c 0
 1317 836.333 1329 824 1353 824 c 0
 1383 824 1398 830.667 1398 844 c 0
1539 709 m 0
 1539 722.333 1529 735 1509 747 c 0
 1491.67 757 1475.67 762 1461 762 c 0
 1441 762 1431 752 1431 732 c 0
 1431 717.333 1440 704.667 1458 694 c 0
 1474.01 684 1489.67 679 1505 679 c 0
 1527.67 679 1539 689 1539 709 c 0
1317 793 m 0
 1317 817.668 1300.33 830.002 1267 830 c 0
 1241 829.997 1228 820.33 1228 801 c 0
 1228 778.333 1244.67 767 1278 767 c 0
 1304 767 1317 775.667 1317 793 c 0
1424 622 m 0
 1424 638.667 1414.5 653.167 1395.5 665.5 c 128
 1376.5 677.833 1358 684 1340 684 c 0
 1314 684 1301 674 1301 654 c 0
 1301 637.333 1311 622.667 1331 610 c 1
 1348.34 598 1366.01 592 1384 592 c 0
 1410.67 592 1424 602 1424 622 c 0
1582 546 m 1
 1496.67 516.667 1435.33 470 1398 406 c 1
 1418.67 424 1480 470.667 1582 546 c 1
1060 909 m 1
 1051.33 924.333 1038.66 932 1022 932 c 0
 1001.33 932 986.333 921 977 899 c 1
 989 904.333 1006 907 1028 907 c 2
 1053 907 l 1
 1055.67 907.694 1058 908.361 1060 909 c 1
1117 752 m 0
 1117 781.333 1095.66 796 1053 796 c 0
 1007 796 984 779.667 984 747 c 0
 984 717 1008 702 1056 702 c 0
 1096.67 702 1117 718.667 1117 752 c 0
1142 620 m 0
 1141.99 630.669 1135.66 640.502 1123 649.5 c 128
 1110.33 658.5 1095 663 1077 663 c 0
 1058.33 662.995 1041.83 657.828 1027.5 647.5 c 128
 1013.16 637.165 1005.99 625.332 1006 612 c 0
 1006 582 1030.33 567 1079 567 c 0
 1121 567 1142 584.667 1142 620 c 0
1166 451 m 0
 1166 484.334 1143.33 501 1098 501 c 256
 1052.67 501 1030 484.333 1030 451 c 0
 1030 418.333 1052.67 401.999 1098 402 c 256
 1143.34 402 1166 418.333 1166 451 c 0
805 609 m 0
 804.998 649 786.331 680.667 749 704 c 1
 716.333 725.333 677.333 736 632 736 c 0
 583.333 736 538.333 720.667 497 690 c 1
 451 657.333 428 617.667 428 571 c 0
 428 530.333 446 497.333 482 472 c 1
 514.667 448 553.667 436 599 436 c 0
 647 436 692.334 452.333 735 485 c 0
 781.667 521 805.001 562.334 805 609 c 0
766 326 m 1
 734 346 734 346 702 366 c 1
 676.666 380 653.333 387 632 387 c 0
 619.333 387 590.667 384 546 378 c 1
 598 370 671.334 352.666 766 326 c 1
1097 754 m 0
 1097 726 1082.33 712 1053 712 c 0
 1017 712.001 999 724.335 999 749 c 0
 999.002 772.333 1016.34 784 1051 784 c 0
 1081.67 784 1097 774 1097 754 c 0
1126 613 m 0
 1126 592.333 1108.33 582 1073 582 c 0
 1038.33 582 1020.99 591.667 1021 611 c 0
 1021 637 1038.33 650 1073 650 c 0
 1108.34 650 1126.01 637.667 1126 613 c 0
707 641 m 0
 707 624.333 697.667 616 679 616 c 0
 671 616 659 618.167 643 622.5 c 128
 627 626.833 614.667 629 606 629 c 0
 585.333 629 567.833 619.667 553.5 601 c 128
 539.167 582.333 526.667 573 516 573 c 0
 498.667 573 487.667 581.667 483 599 c 1
 497 599.002 510.167 616.835 522.5 652.5 c 128
 534.833 688.169 560 706.002 598 706 c 0
 619.333 706 655 688.667 705 654 c 1
 706.333 650 707 645.667 707 641 c 0
780 601 m 0
 780 577.666 769.667 551.833 749 523.5 c 128
 728.333 495.167 706.333 479.667 683 477 c 1
 663.667 461 636.667 453 602 453 c 0
 500 453 449 491.667 449 569 c 0
 449 597.667 459.667 625.167 481 651.5 c 128
 502.334 677.833 527 695.333 555 704 c 1
 524.333 684 508.333 669.667 507 661 c 0
 504.333 645.665 496.333 628.498 483 609.5 c 128
 469.667 590.5 463 579 463 575 c 0
 463 550.333 480.333 534.333 515 527 c 128
 549.668 519.665 567.001 511.665 567 503 c 1
 561.662 499 558.996 492.333 559 483 c 0
 559.006 469 563.34 462 572 462 c 0
 584 462 597.667 466 613 474 c 128
 628.333 482 640.667 486 650 486 c 0
 657.333 485.996 665 484.663 673 482 c 1
 695.002 486 710.335 496.667 719 514 c 1
 709 516.002 704 522.335 704 533 c 0
 704 541.667 712.167 557.667 728.5 581 c 128
 744.833 604.333 753 622 753 634 c 0
 753 662.667 706.667 691.334 614 720 c 1
 620.002 720.689 626.336 721.022 633 721 c 0
 674.333 721 714.333 708 753 682 c 0
 771 669.333 780 642.333 780 601 c 0
652 598 m 0
 651.998 574.666 633.331 562.999 596 563 c 0
 576 563 566 571.667 566 589 c 0
 566.002 611.668 582.335 623.001 615 623 c 0
 639.668 623 652.001 614.667 652 598 c 0
742 631 m 0
 741.999 613 730.832 592.5 708.5 569.5 c 128
 686.165 546.5 674.999 531.667 675 525 c 0
 675 521.655 679.5 519.488 688.5 518.5 c 128
 697.5 517.5 702 512.667 702 504 c 0
 702 496 698.667 492 692 492 c 0
 687.333 492.008 680.667 492.674 672 494 c 128
 663.333 495.341 656.667 496.008 652 496 c 0
 638.667 495.998 623.667 491.165 607 481.5 c 128
 590.333 471.832 580.333 466.998 577 467 c 1
 570 473 l 1
 568.649 475.667 567.983 478.333 568 481 c 0
 568 484.334 570 488.168 574 492.5 c 128
 578 496.833 580 500.333 580 503 c 0
 579.998 518.333 563.332 527.333 530 530 c 0
 494.667 532.667 475 548.667 471 578 c 1
 491 557.333 529 547 585 547 c 0
 617.001 547.002 647.334 555.335 676 572 c 0
 710 591.333 727 615.667 727 645 c 0
 727 651.669 726 658.336 724 665 c 1
 736 655.665 742 644.332 742 631 c 0
1055 767 m 0
 1055 771 1049 773 1037 773 c 0
 1021.66 773 1014 767 1014 755 c 0
 1014 754.333 1021.67 754 1037 754 c 0
 1049 754.006 1055 758.339 1055 767 c 0
1077 628 m 0
 1077 632 1071 634 1059 634 c 0
 1043.67 634 1036 628 1036 616 c 0
 1036.01 615.333 1043.68 615 1059 615 c 0
 1071 615.007 1077 619.34 1077 628 c 0
643 598 m 1
 619.666 594 596.999 588.667 575 582 c 1
 583.002 574.662 592.336 570.996 603 571 c 0
 618.333 571 631.667 580 643 598 c 1
EndSplineSet
EndChar

StartChar: uni0090
Encoding: 144 144 91
Width: 2048
VWidth: 2048
Flags: HW
LayerCount: 2
Fore
SplineSet
1532 -205 m 0
 1532 -237 1516 -259.333 1484 -272 c 0
 1472 -276.667 1442.66 -282.667 1396 -290 c 2
 1083 -338 l 2
 1056.33 -342 1032.33 -344 1011 -344 c 0
 949.666 -344 901 -320.333 865 -273 c 1
 837 -221.667 808.667 -170.333 780 -119 c 0
 730.666 -28.3333 702.999 24 697 38 c 0
 679 81.3334 665.667 138.333 657 209 c 2
 551 1093 l 1
 549.667 1118.33 558.667 1135.33 578 1144 c 0
 586.001 1147.35 607.334 1151.02 642 1155 c 2
 938 1188 l 2
 973.333 1192 999.667 1212.33 1017 1249 c 1
 1040 1249 l 1
 1072 1307 l 1
 1060 1421 l 1
 1068 1445 l 1
 1056 1586 l 1
 1045.33 1587.35 1039.66 1593.01 1039 1603 c 1
 1037.67 1612.37 1046 1617.04 1064 1617 c 0
 1080.01 1617 1088.68 1611 1090 1599 c 1
 1086 1594.3 1080 1589.96 1072 1586 c 1
 1084 1445 l 1
 1095 1421 l 1
 1107 1307 l 1
 1143 1249 l 1
 1161 1249 l 1
 1203 1165 l 1
 1306 187 l 1
 1477 -79 l 1
 1490.33 -98.3333 1503.33 -117.333 1516 -136 c 1
 1526.67 -154.667 1532 -177.667 1532 -205 c 0
1507 -205 m 0
 1507 -180.333 1502.33 -160 1493 -144 c 1
 1475 -119 1475 -119 1457 -94 c 1
 1282 179 l 1
 1179 1158 l 1
 1146 1221 l 1
 1033 1221 l 1
 1013.67 1186.33 982.667 1167 940 1163 c 0
 866.667 1156.33 757 1144.33 611 1127 c 0
 586.333 1123.67 574.667 1112.33 576 1093 c 2
 577 1078 l 1
 682 212 l 2
 690 142.667 703 87.3333 721 46 c 0
 725.667 34.6667 752.667 -16.3333 802 -107 c 0
 828 -154.333 853.667 -202 879 -250 c 1
 912.333 -296 956.333 -319 1011 -319 c 0
 1031.67 -319 1109.33 -309 1244 -289 c 128
 1378.67 -269 1454 -256.334 1470 -251 c 1
 1494.67 -241.667 1507 -226.333 1507 -205 c 0
1101 1025 m 1
 1101 1011 l 1
 1079.67 1053.67 1056.33 1075 1031 1075 c 0
 993.666 1075 936 1069 858 1057 c 128
 780 1045 726.333 1039 697 1039 c 1
 686 1041 l 1
 699 1059 l 1
 894.333 1085.67 1011.33 1099 1050 1099 c 0
 1075.33 1099 1091.33 1092.33 1098 1079 c 0
 1101.33 1071 1102.33 1053 1101 1025 c 1
1003 996 m 0
 1003 990.665 996.667 975.331 984 950 c 0
 970 921.333 959.667 907 953 907 c 0
 944.333 907.007 940 911.34 940 920 c 0
 940.004 925.333 946.337 940.667 959 966 c 0
 973.006 994 983.339 1008 990 1008 c 0
 998.678 1008 1003.01 1004 1003 996 c 0
953 996 m 0
 953 990.665 946.667 975.331 934 950 c 0
 920 921.333 909.667 907 903 907 c 0
 894.333 907.007 890 911.34 890 920 c 0
 890.003 925.333 896.337 940.667 909 966 c 0
 923.005 994 933.339 1008 940 1008 c 0
 948.678 1008 953.011 1004 953 996 c 0
903 996 m 0
 903 990.665 896.667 975.331 884 950 c 0
 870 921.333 859.667 907 853 907 c 0
 844.333 907.007 840 911.34 840 920 c 0
 840.003 925.333 846.337 940.667 859 966 c 0
 873.005 994 883.338 1008 890 1008 c 0
 898.674 1008 903.007 1004 903 996 c 0
1121 855 m 256
 1120.98 849.662 1117.65 841.995 1111 832 c 1
 1055.67 823.333 1000.67 814.333 946 805 c 1
 878 794.333 822.667 789 780 789 c 0
 760 789 746 797.667 738 815 c 1
 733.333 831.668 729 848.335 725 865 c 1
 756.333 835 777.333 820 788 820 c 0
 800 820 851.5 825 942.5 835 c 128
 1033.5 845 1081 851 1085 853 c 0
 1097.01 858.333 1104.68 877.667 1108 911 c 1
 1116.67 878.997 1121 860.331 1121 855 c 256
678 1113 m 1
 644 1107 627 1091.66 627 1067 c 0
 627 1048.33 629.667 1000.67 635 924 c 1
 624 921 l 1
 611.333 1015.67 605 1069 605 1081 c 0
 605.003 1101 613.337 1111 630 1111 c 1
 678 1113 l 1
1230 272 m 1
 1231.33 243.333 1210.66 227.333 1168 224 c 1
 1005 196 l 1
 935.667 181.333 881.667 174 843 174 c 0
 804.999 174 780.333 194 769 234 c 1
 766.333 246 758.667 301.667 746 401 c 1
 735.333 467 723 566.333 709 699 c 1
 708 707 l 1
 706.668 738.333 720.335 755.667 749 759 c 0
 1002.33 790.333 1130.33 806 1133 806 c 0
 1159 806 1174 788 1178 752 c 2
 1230 272 l 1
1231 173 m 1
 1105 149 l 1
 1107 125 l 1
 1087 123 l 1
 1083 167 l 1
 1225 194 l 1
 1231 173 l 1
1302 22 m 0
 1302 12 1290.33 5 1267 1 c 0
 1091.67 -33.6667 971.333 -51 906 -51 c 0
 897.333 -51 882.667 -39.6667 862 -17 c 128
 841.333 5.66667 831 21 831 29 c 2
 831 30 l 1
 869 13 l 1
 895.668 2.33333 918.334 -3 937 -3 c 0
 952.333 -3 1000 2 1080 12 c 128
 1160 22 1209 29 1227 33 c 0
 1250.34 39 1262 44 1262 48 c 0
 1262 54 1260.5 64.5 1257.5 79.5 c 128
 1254.5 94.5 1253 106 1253 114 c 1
 1285.67 64.6667 1302 34 1302 22 c 0
990 112 m 1
 968 105 l 1
 966 132 l 1
 804 105 l 1
 804 127 l 1
 986 154 l 1
 990 112 l 1
1490 -197 m 0
 1490 -204.333 1486.33 -208.666 1479 -210 c 0
 1152.33 -254.667 988.333 -277 987 -277 c 0
 979.656 -277 975.989 -273 976 -265 c 0
 976.007 -257.667 979.341 -253.334 986 -252 c 0
 1312.67 -207.333 1476.67 -185 1478 -185 c 0
 1486 -185 1490 -189 1490 -197 c 0
1131 747 m 0
 1130.99 759.67 1120.66 766.003 1100 766 c 0
 1064.67 765.997 1047 756.33 1047 737 c 0
 1047.01 723.664 1054.67 716.997 1070 717 c 0
 1110.67 717 1131 727 1131 747 c 0
1142 660 m 0
 1141.99 673.333 1131.65 680 1111 680 c 0
 1075.67 680 1058 670 1058 650 c 0
 1058.01 637.333 1065.67 631 1081 631 c 0
 1121.67 631 1142 640.667 1142 660 c 0
1158 568 m 0
 1157.99 581.333 1147.65 588 1127 588 c 0
 1091.67 588 1074 578 1074 558 c 0
 1074.01 545.333 1081.67 539 1097 539 c 0
 1137.67 539 1158 548.667 1158 568 c 0
988 717 m 0
 988 731.671 979 739.004 961 739 c 0
 925 738.996 907 729.329 907 710 c 0
 907 696.664 916.667 689.997 936 690 c 0
 970.669 690 988.002 699 988 717 c 0
1172 474 m 0
 1171.99 486.667 1161.65 493 1141 493 c 0
 1105.67 493 1088 483.333 1088 464 c 0
 1088.01 450.667 1095.68 444 1111 444 c 0
 1151.67 444 1172 454 1172 474 c 0
999 631 m 0
 999 645.669 990 653.002 972 653 c 0
 936 652.998 918 643.331 918 624 c 0
 918 610.664 927.667 603.998 947 604 c 0
 981.669 604 999.003 613 999 631 c 0
1190 376 m 0
 1190 388.667 1179.33 395 1158 395 c 0
 1128.67 394.999 1114 386.666 1114 370 c 0
 1114 357.333 1124.67 350.999 1146 351 c 0
 1175.34 351 1190.01 359.333 1190 376 c 0
1015 539 m 0
 1014.99 553.67 1006.33 561.003 989 561 c 0
 952.333 560.998 934 551.331 934 532 c 0
 934 518.665 943.667 511.998 963 512 c 0
 997.669 512 1015 521 1015 539 c 0
853 697 m 0
 852.998 715 839.332 724 812 724 c 0
 776 724 758 712.667 758 690 c 0
 758 672 771.667 663 799 663 c 0
 835 663.001 853 674.335 853 697 c 0
1203 304 m 0
 1202.99 316 1192.65 322 1172 322 c 0
 1142.67 321.999 1128 313.666 1128 297 c 0
 1128 285 1138.33 279 1159 279 c 0
 1188.34 279 1203 287.333 1203 304 c 0
1029 444 m 0
 1029 458.667 1020 466 1002 466 c 0
 965.333 466 947 456.333 947 437 c 0
 947 424.333 956.667 417.999 976 418 c 0
 1011.33 418.001 1029 426.667 1029 444 c 0
864 611 m 0
 864 629 850 638 822 638 c 0
 786.665 637.999 768.998 626.332 769 603 c 0
 769 585 782.667 576 810 576 c 0
 846 576 864 587.667 864 611 c 0
1089 361 m 0
 1089 373.667 1077.33 380 1054 380 c 0
 1024.67 379.999 1010 371.666 1010 355 c 0
 1010 342.333 1020.67 335.999 1042 336 c 0
 1073.34 336 1089.01 344.333 1089 361 c 0
880 519 m 0
 879.998 537 866.332 546 839 546 c 0
 803 545.999 785 534.332 785 511 c 0
 785 493 798.667 484 826 484 c 0
 862 484 880 495.667 880 519 c 0
1100 289 m 0
 1100 301 1088.66 307 1066 307 c 0
 1036.67 306.999 1022 298.666 1022 282 c 0
 1022 270 1032.33 264 1053 264 c 0
 1084.34 264 1100.01 272.333 1100 289 c 0
987 341 m 0
 987 353.667 976.667 360 956 360 c 0
 926.665 359.999 911.998 351.666 912 335 c 0
 912.004 322.333 922.337 315.999 943 316 c 0
 972.333 316 987 324.333 987 341 c 0
894 424 m 0
 894 442 880 451 852 451 c 0
 816 451 798 439.666 798 417 c 0
 798 399 812 390 840 390 c 0
 876 390 894 401.333 894 424 c 0
998 269 m 0
 997.998 281.667 987.331 288 966 288 c 0
 936.664 288 921.997 279.333 922 262 c 0
 922 250 932.667 244 954 244 c 0
 983.333 244 998 252.334 998 269 c 0
878 326 m 0
 878 338.667 867.667 345 847 345 c 0
 817.665 344.999 802.998 336.666 803 320 c 0
 803.003 307.333 813.336 300.999 834 301 c 0
 863.333 301 878 309.333 878 326 c 0
896 254 m 0
 895.998 266.667 885.332 273 864 273 c 0
 834.664 273 819.998 264.333 820 247 c 0
 820 235 830.667 229 852 229 c 0
 881.333 229 896 237.334 896 254 c 0
EndSplineSet
EndChar

StartChar: uni0091
Encoding: 145 145 92
Width: 2048
VWidth: 2048
Flags: HW
LayerCount: 2
Fore
SplineSet
1700 76 m 1
 1605 0 l 1
 347 0 l 1
 347 1383 l 1
 1700 1383 l 1
 1700 76 l 1
1229 748 m 256
 1228.99 798.667 1211.16 841.834 1175.5 877.5 c 128
 1139.83 913.169 1096.67 931.003 1046 931 c 0
 996 931 953.167 913.167 917.5 877.5 c 128
 881.833 841.833 864 798.667 864 748 c 256
 864.002 697.333 881.835 654.167 917.5 618.5 c 128
 953.167 582.833 996 565 1046 565 c 0
 1096.67 565.002 1139.83 582.835 1175.5 618.5 c 128
 1211.17 654.167 1229 697.334 1229 748 c 256
506 1197 m 1
 506 1361 l 1
 384 1361 l 1
 384 1197 l 1
 506 1197 l 1
1435 40 m 1
 1435 485 l 1
 766 485 l 1
 766 40 l 1
 1435 40 l 1
1079 719 m 1
 1015 719 l 1
 1015 780 l 1
 1079 780 l 1
 1079 719 l 1
490 1218 m 1
 398 1218 l 1
 398 1284 l 1
 490 1284 l 1
 490 1218 l 1
1361 106 m 1
 1324 106 l 1
 1324 90 l 1
 1255 90 l 1
 1255 106 l 1
 1210 106 l 1
 1210 445 l 1
 1361 445 l 1
 1361 106 l 1
EndSplineSet
EndChar
